<?xml version="1.0" encoding="UTF-8"?>
<svg xmlns="http://www.w3.org/2000/svg" xmlns:xlink="http://www.w3.org/1999/xlink" width="1920" height="1080" viewBox="0 0 1920 1080">
<defs>
<g>
<g id="glyph-0-0">
<path d="M 1.050781 -2.039062 L 1.050781 -0.132812 L 1.511719 -0.132812 C 1.546875 -0.132812 1.570312 -0.128906 1.582031 -0.117188 C 1.597656 -0.105469 1.601562 -0.0859375 1.601562 -0.0664062 C 1.601562 -0.046875 1.597656 -0.03125 1.582031 -0.0195312 C 1.570312 -0.0078125 1.546875 0 1.511719 0 L 0.457031 0 C 0.421875 0 0.398438 -0.0078125 0.386719 -0.0195312 C 0.371094 -0.03125 0.367188 -0.046875 0.367188 -0.0664062 C 0.367188 -0.0859375 0.371094 -0.105469 0.386719 -0.117188 C 0.398438 -0.128906 0.421875 -0.132812 0.457031 -0.132812 L 0.917969 -0.132812 L 0.917969 -1.851562 L 0.476562 -1.714844 C 0.457031 -1.707031 0.441406 -1.707031 0.429688 -1.707031 C 0.414062 -1.707031 0.402344 -1.710938 0.386719 -1.726562 C 0.375 -1.738281 0.367188 -1.753906 0.367188 -1.773438 C 0.367188 -1.789062 0.371094 -1.804688 0.382812 -1.816406 C 0.390625 -1.828125 0.410156 -1.835938 0.4375 -1.84375 Z "/>
</g>
<g id="glyph-0-1">
<path d="M 0.457031 -0.132812 L 0.457031 -1.742188 L 0.34375 -1.742188 C 0.3125 -1.742188 0.289062 -1.746094 0.273438 -1.757812 C 0.261719 -1.773438 0.253906 -1.789062 0.253906 -1.808594 C 0.253906 -1.828125 0.261719 -1.84375 0.273438 -1.855469 C 0.289062 -1.871094 0.3125 -1.875 0.34375 -1.875 L 1.066406 -1.875 C 1.179688 -1.875 1.285156 -1.851562 1.378906 -1.804688 C 1.472656 -1.757812 1.542969 -1.703125 1.59375 -1.644531 C 1.675781 -1.542969 1.742188 -1.4375 1.785156 -1.324219 C 1.816406 -1.242188 1.832031 -1.144531 1.832031 -1.03125 L 1.832031 -0.84375 C 1.832031 -0.707031 1.800781 -0.574219 1.738281 -0.445312 C 1.679688 -0.316406 1.578125 -0.203125 1.433594 -0.105469 C 1.328125 -0.0351562 1.207031 0 1.066406 0 L 0.34375 0 C 0.3125 0 0.289062 -0.0078125 0.273438 -0.0195312 C 0.261719 -0.03125 0.253906 -0.046875 0.253906 -0.0664062 C 0.253906 -0.0859375 0.261719 -0.105469 0.273438 -0.117188 C 0.289062 -0.128906 0.3125 -0.132812 0.34375 -0.132812 L 0.457031 -0.132812 M 0.589844 -0.132812 L 1.082031 -0.132812 C 1.195312 -0.132812 1.300781 -0.171875 1.398438 -0.246094 C 1.496094 -0.320312 1.570312 -0.40625 1.621094 -0.511719 C 1.671875 -0.613281 1.695312 -0.714844 1.695312 -0.816406 L 1.695312 -1.058594 C 1.695312 -1.144531 1.683594 -1.21875 1.65625 -1.28125 C 1.617188 -1.378906 1.5625 -1.46875 1.492188 -1.554688 C 1.453125 -1.601562 1.398438 -1.644531 1.324219 -1.683594 C 1.246094 -1.722656 1.167969 -1.742188 1.082031 -1.742188 L 0.589844 -1.742188 Z "/>
</g>
<g id="glyph-0-2">
<path d="M 1.234375 -0.5625 L 0.34375 -0.5625 L 0.34375 -0.71875 L 1.089844 -2.011719 L 1.371094 -2.011719 L 1.371094 -0.699219 L 1.484375 -0.699219 C 1.519531 -0.699219 1.542969 -0.691406 1.554688 -0.679688 C 1.570312 -0.667969 1.574219 -0.648438 1.574219 -0.628906 C 1.574219 -0.609375 1.570312 -0.59375 1.554688 -0.582031 C 1.542969 -0.570312 1.519531 -0.5625 1.484375 -0.5625 L 1.371094 -0.5625 L 1.371094 -0.132812 L 1.484375 -0.132812 C 1.519531 -0.132812 1.542969 -0.128906 1.554688 -0.117188 C 1.570312 -0.105469 1.574219 -0.0859375 1.574219 -0.0664062 C 1.574219 -0.046875 1.570312 -0.03125 1.554688 -0.0195312 C 1.542969 -0.0078125 1.519531 0 1.484375 0 L 0.984375 0 C 0.953125 0 0.925781 -0.0078125 0.914062 -0.0195312 C 0.898438 -0.03125 0.894531 -0.046875 0.894531 -0.0664062 C 0.894531 -0.0859375 0.898438 -0.105469 0.914062 -0.117188 C 0.925781 -0.128906 0.953125 -0.132812 0.984375 -0.132812 L 1.234375 -0.132812 L 1.234375 -0.5625 M 1.234375 -0.699219 L 1.234375 -1.875 L 1.164062 -1.875 L 0.484375 -0.699219 Z "/>
</g>
<g id="glyph-0-3">
<path d="M 1.601562 -1.171875 L 1.601562 -0.839844 C 1.601562 -0.546875 1.535156 -0.320312 1.394531 -0.152344 C 1.289062 -0.0195312 1.152344 0.046875 0.988281 0.046875 C 0.910156 0.046875 0.832031 0.03125 0.765625 0 C 0.695312 -0.03125 0.632812 -0.0742188 0.585938 -0.132812 C 0.554688 -0.167969 0.519531 -0.222656 0.484375 -0.300781 C 0.445312 -0.378906 0.421875 -0.449219 0.402344 -0.515625 C 0.378906 -0.609375 0.367188 -0.714844 0.367188 -0.839844 L 0.367188 -1.171875 C 0.367188 -1.460938 0.4375 -1.691406 0.574219 -1.859375 C 0.683594 -1.992188 0.816406 -2.058594 0.984375 -2.058594 C 1.0625 -2.058594 1.136719 -2.042969 1.207031 -2.011719 C 1.277344 -1.980469 1.335938 -1.9375 1.386719 -1.878906 C 1.417969 -1.84375 1.453125 -1.785156 1.488281 -1.707031 C 1.523438 -1.632812 1.550781 -1.558594 1.566406 -1.496094 C 1.589844 -1.402344 1.601562 -1.296875 1.601562 -1.171875 M 1.46875 -1.152344 C 1.46875 -1.28125 1.449219 -1.398438 1.414062 -1.507812 C 1.378906 -1.617188 1.339844 -1.707031 1.292969 -1.769531 C 1.265625 -1.808594 1.230469 -1.839844 1.191406 -1.867188 C 1.128906 -1.90625 1.058594 -1.921875 0.984375 -1.921875 C 0.832031 -1.921875 0.714844 -1.847656 0.628906 -1.691406 C 0.542969 -1.539062 0.5 -1.359375 0.5 -1.152344 L 0.5 -0.859375 C 0.5 -0.730469 0.519531 -0.613281 0.554688 -0.5 C 0.589844 -0.390625 0.632812 -0.304688 0.679688 -0.238281 C 0.703125 -0.203125 0.738281 -0.171875 0.78125 -0.144531 C 0.839844 -0.105469 0.910156 -0.0859375 0.988281 -0.0859375 C 1.136719 -0.0859375 1.253906 -0.164062 1.339844 -0.316406 C 1.425781 -0.472656 1.46875 -0.652344 1.46875 -0.859375 Z "/>
</g>
<g id="glyph-1-0">
<path d="M 3.6875 -3.261719 C 3.582031 -3.242188 3.484375 -3.207031 3.386719 -3.148438 C 3.292969 -3.089844 3.210938 -2.988281 3.140625 -2.84375 C 3.003906 -2.527344 2.859375 -2.199219 2.710938 -1.855469 C 2.5625 -1.515625 2.410156 -1.15625 2.25 -0.78125 C 2.203125 -0.671875 2.152344 -0.542969 2.101562 -0.394531 C 2.046875 -0.246094 2 -0.105469 1.953125 0.03125 L 1.679688 0.03125 C 1.457031 -0.519531 1.25 -1.023438 1.0625 -1.480469 C 0.875 -1.933594 0.679688 -2.402344 0.476562 -2.878906 C 0.429688 -2.984375 0.351562 -3.070312 0.25 -3.128906 C 0.144531 -3.191406 0.0390625 -3.226562 -0.0664062 -3.246094 L -0.0664062 -3.476562 L 1.542969 -3.476562 L 1.542969 -3.230469 C 1.472656 -3.226562 1.382812 -3.214844 1.277344 -3.1875 C 1.171875 -3.160156 1.117188 -3.121094 1.117188 -3.074219 C 1.117188 -3.070312 1.125 -3.050781 1.136719 -3.019531 C 1.148438 -2.992188 1.160156 -2.957031 1.171875 -2.921875 C 1.269531 -2.679688 1.402344 -2.347656 1.578125 -1.917969 C 1.753906 -1.488281 1.898438 -1.140625 2.007812 -0.878906 C 2.09375 -1.078125 2.199219 -1.332031 2.328125 -1.632812 C 2.457031 -1.933594 2.59375 -2.269531 2.742188 -2.640625 C 2.765625 -2.703125 2.789062 -2.761719 2.808594 -2.816406 C 2.832031 -2.871094 2.839844 -2.925781 2.839844 -2.984375 C 2.839844 -3.023438 2.820312 -3.058594 2.785156 -3.089844 C 2.746094 -3.125 2.699219 -3.152344 2.644531 -3.175781 C 2.589844 -3.199219 2.535156 -3.214844 2.484375 -3.226562 C 2.433594 -3.238281 2.390625 -3.246094 2.359375 -3.25 L 2.359375 -3.476562 L 3.6875 -3.476562 Z "/>
</g>
<g id="glyph-1-1">
<path d="M 1.796875 -1.613281 C 1.355469 -1.613281 1.015625 -1.761719 0.769531 -2.066406 C 0.527344 -2.371094 0.40625 -2.800781 0.40625 -3.363281 C 0.40625 -3.902344 0.527344 -4.324219 0.765625 -4.640625 C 1.007812 -4.957031 1.351562 -5.113281 1.796875 -5.113281 C 2.242188 -5.113281 2.582031 -4.957031 2.828125 -4.644531 C 3.070312 -4.335938 3.191406 -3.90625 3.191406 -3.363281 C 3.191406 -2.808594 3.070312 -2.378906 2.824219 -2.070312 C 2.578125 -1.765625 2.234375 -1.613281 1.796875 -1.613281 M 1.796875 -4.855469 C 1.296875 -4.855469 1.046875 -4.355469 1.046875 -3.359375 C 1.046875 -2.367188 1.296875 -1.871094 1.796875 -1.871094 C 2.035156 -1.871094 2.21875 -1.996094 2.351562 -2.253906 C 2.484375 -2.511719 2.550781 -2.878906 2.550781 -3.359375 C 2.550781 -4.355469 2.300781 -4.855469 1.796875 -4.855469 Z "/>
</g>
<g id="glyph-1-2">
</g>
<g id="glyph-1-3">
<path d="M 4.101562 -2.410156 L 0.542969 -2.410156 L 0.542969 -2.847656 L 4.101562 -2.847656 L 4.101562 -2.410156 M 4.101562 -1.097656 L 0.542969 -1.097656 L 0.542969 -1.539062 L 4.101562 -1.539062 Z "/>
</g>
<g id="glyph-1-4">
<path d="M 2.472656 1.09375 L 0.59375 1.09375 L 0.59375 -5.355469 L 2.472656 -5.355469 L 2.472656 -5.035156 L 1.21875 -5.035156 L 1.21875 0.769531 L 2.472656 0.769531 Z "/>
</g>
<g id="glyph-1-5">
<path d="M 2.851562 0 L 0.476562 0 L 0.476562 -0.25 C 0.546875 -0.253906 0.65625 -0.265625 0.804688 -0.28125 C 0.957031 -0.296875 1.058594 -0.3125 1.113281 -0.328125 C 1.1875 -0.351562 1.242188 -0.390625 1.28125 -0.441406 C 1.320312 -0.496094 1.339844 -0.574219 1.339844 -0.679688 L 1.339844 -3.15625 L 0.460938 -3.15625 L 0.460938 -3.453125 L 0.65625 -3.453125 C 0.910156 -3.453125 1.136719 -3.5 1.339844 -3.59375 C 1.539062 -3.6875 1.683594 -3.789062 1.769531 -3.898438 L 2.0625 -3.898438 C 2.054688 -3.746094 2.050781 -3.566406 2.042969 -3.359375 C 2.035156 -3.15625 2.03125 -2.972656 2.03125 -2.8125 L 2.03125 -0.71875 C 2.03125 -0.636719 2.050781 -0.5625 2.085938 -0.5 C 2.121094 -0.433594 2.175781 -0.386719 2.242188 -0.355469 C 2.304688 -0.332031 2.402344 -0.308594 2.542969 -0.285156 C 2.679688 -0.265625 2.785156 -0.253906 2.851562 -0.25 Z "/>
</g>
<g id="glyph-1-6">
<path d="M 3.066406 -5.371094 L 0.632812 1.496094 L 0.171875 1.496094 L 2.601562 -5.371094 Z "/>
</g>
<g id="glyph-1-7">
<path d="M 3.792969 -1.625 C 3.792969 -1.378906 3.746094 -1.152344 3.660156 -0.9375 C 3.570312 -0.722656 3.453125 -0.542969 3.304688 -0.390625 C 3.132812 -0.21875 2.941406 -0.09375 2.734375 -0.0117188 C 2.527344 0.0703125 2.308594 0.113281 2.085938 0.113281 C 1.824219 0.113281 1.585938 0.0664062 1.375 -0.03125 C 1.164062 -0.128906 0.984375 -0.265625 0.835938 -0.441406 C 0.683594 -0.617188 0.570312 -0.835938 0.488281 -1.097656 C 0.40625 -1.355469 0.363281 -1.644531 0.363281 -1.964844 C 0.363281 -2.804688 0.613281 -3.511719 1.113281 -4.089844 C 1.613281 -4.664062 2.28125 -5.007812 3.121094 -5.125 L 3.183594 -4.808594 L 2.867188 -4.75 C 2.355469 -4.585938 1.960938 -4.328125 1.683594 -3.980469 C 1.40625 -3.632812 1.226562 -3.210938 1.144531 -2.714844 C 1.34375 -2.890625 1.542969 -3.015625 1.742188 -3.089844 C 1.941406 -3.164062 2.148438 -3.199219 2.367188 -3.199219 C 2.757812 -3.199219 3.09375 -3.046875 3.375 -2.746094 C 3.652344 -2.445312 3.792969 -2.074219 3.792969 -1.625 M 3.027344 -1.53125 C 3.027344 -1.910156 2.9375 -2.21875 2.761719 -2.449219 C 2.589844 -2.679688 2.351562 -2.792969 2.058594 -2.792969 C 1.882812 -2.792969 1.71875 -2.761719 1.566406 -2.695312 C 1.414062 -2.628906 1.269531 -2.519531 1.128906 -2.363281 C 1.125 -2.335938 1.121094 -2.269531 1.117188 -2.167969 C 1.113281 -2.066406 1.109375 -1.984375 1.109375 -1.925781 C 1.109375 -1.375 1.199219 -0.945312 1.378906 -0.632812 C 1.5625 -0.320312 1.796875 -0.164062 2.089844 -0.164062 C 2.371094 -0.164062 2.597656 -0.289062 2.769531 -0.53125 C 2.941406 -0.773438 3.027344 -1.105469 3.027344 -1.53125 Z "/>
</g>
<g id="glyph-1-8">
<path d="M 1.511719 -0.125 C 1.511719 0.046875 1.476562 0.207031 1.398438 0.355469 C 1.320312 0.507812 1.234375 0.636719 1.136719 0.742188 C 1.035156 0.855469 0.925781 0.957031 0.816406 1.042969 C 0.703125 1.132812 0.597656 1.199219 0.503906 1.25 L 0.34375 1.011719 C 0.453125 0.941406 0.554688 0.871094 0.644531 0.800781 C 0.734375 0.730469 0.808594 0.660156 0.863281 0.589844 C 0.933594 0.507812 0.996094 0.417969 1.042969 0.320312 C 1.09375 0.222656 1.125 0.113281 1.140625 -0.0078125 L 0.960938 -0.0078125 C 0.800781 -0.0078125 0.679688 -0.046875 0.589844 -0.128906 C 0.503906 -0.210938 0.457031 -0.324219 0.457031 -0.460938 C 0.457031 -0.5625 0.5 -0.65625 0.578125 -0.75 C 0.660156 -0.84375 0.769531 -0.890625 0.90625 -0.890625 C 1.109375 -0.890625 1.261719 -0.820312 1.359375 -0.6875 C 1.460938 -0.550781 1.511719 -0.363281 1.511719 -0.125 Z "/>
</g>
<g id="glyph-1-9">
<path d="M 1.464844 -0.40625 C 1.464844 -0.273438 1.414062 -0.160156 1.320312 -0.0703125 C 1.226562 0.0234375 1.113281 0.0703125 0.980469 0.0703125 C 0.847656 0.0703125 0.734375 0.0234375 0.640625 -0.0703125 C 0.542969 -0.160156 0.496094 -0.273438 0.496094 -0.40625 C 0.496094 -0.539062 0.542969 -0.652344 0.640625 -0.746094 C 0.734375 -0.839844 0.847656 -0.890625 0.980469 -0.890625 C 1.113281 -0.890625 1.226562 -0.839844 1.320312 -0.746094 C 1.414062 -0.652344 1.464844 -0.539062 1.464844 -0.40625 Z "/>
</g>
<g id="glyph-1-10">
<path d="M 2.117188 1.09375 L 0.234375 1.09375 L 0.234375 0.769531 L 1.488281 0.769531 L 1.488281 -5.035156 L 0.234375 -5.035156 L 0.234375 -5.355469 L 2.117188 -5.355469 Z "/>
</g>
</g>
</defs>
<path fill="none" stroke-width="0.190851" stroke-linecap="butt" stroke-linejoin="miter" stroke="rgb(95.686275%, 63.529412%, 38.039216%)" stroke-opacity="1" stroke-miterlimit="2" d="M 87.285156 20.285156 L 95.890625 20.285156 L 95.890625 29.265625 L 87.285156 29.265625 Z "/>
<g fill="rgb(95.686275%, 63.529412%, 38.039216%)" fill-opacity="1">
<use xlink:href="#glyph-0-0" x="87.574219" y="24.679688"/>
</g>
<g fill="rgb(95.686275%, 63.529412%, 38.039216%)" fill-opacity="1">
<use xlink:href="#glyph-0-1" x="91.683594" y="24.679688"/>
</g>
<g fill="rgb(95.686275%, 63.529412%, 38.039216%)" fill-opacity="1">
<use xlink:href="#glyph-0-2" x="87.574219" y="28.980469"/>
</g>
<g fill="rgb(95.686275%, 63.529412%, 38.039216%)" fill-opacity="1">
<use xlink:href="#glyph-0-3" x="91.683594" y="28.980469"/>
</g>
<g fill="rgb(95.686275%, 63.529412%, 38.039216%)" fill-opacity="1">
<use xlink:href="#glyph-1-0" x="30" y="27.591797"/>
<use xlink:href="#glyph-1-1" x="34" y="27.591797"/>
<use xlink:href="#glyph-1-2" x="38" y="27.591797"/>
<use xlink:href="#glyph-1-3" x="40" y="27.591797"/>
<use xlink:href="#glyph-1-2" x="45" y="27.591797"/>
<use xlink:href="#glyph-1-4" x="47" y="27.591797"/>
<use xlink:href="#glyph-1-5" x="50" y="27.591797"/>
<use xlink:href="#glyph-1-6" x="53" y="27.591797"/>
<use xlink:href="#glyph-1-7" x="56" y="27.591797"/>
<use xlink:href="#glyph-1-8" x="60" y="27.591797"/>
<use xlink:href="#glyph-1-2" x="62" y="27.591797"/>
<use xlink:href="#glyph-1-5" x="64" y="27.591797"/>
<use xlink:href="#glyph-1-6" x="67" y="27.591797"/>
<use xlink:href="#glyph-1-7" x="70" y="27.591797"/>
<use xlink:href="#glyph-1-8" x="74" y="27.591797"/>
<use xlink:href="#glyph-1-2" x="76" y="27.591797"/>
<use xlink:href="#glyph-1-9" x="78" y="27.591797"/>
<use xlink:href="#glyph-1-9" x="80" y="27.591797"/>
<use xlink:href="#glyph-1-9" x="82" y="27.591797"/>
<use xlink:href="#glyph-1-10" x="84" y="27.591797"/>
</g>
</svg>
