<?xml version="1.0" encoding="UTF-8"?>
<svg xmlns="http://www.w3.org/2000/svg" xmlns:xlink="http://www.w3.org/1999/xlink" width="1920" height="1080" viewBox="0 0 1920 1080">
<defs>
<g>
<g id="glyph-0-0">
<path d="M 1.898438 -1.441406 C 1.898438 -1.335938 1.875 -1.242188 1.832031 -1.164062 C 1.785156 -1.085938 1.722656 -1.019531 1.644531 -0.972656 C 1.5625 -0.921875 1.472656 -0.886719 1.367188 -0.863281 C 1.261719 -0.839844 1.144531 -0.828125 1.015625 -0.828125 L 0.855469 -0.828125 L 0.855469 -0.289062 C 0.855469 -0.253906 0.863281 -0.226562 0.875 -0.203125 C 0.886719 -0.179688 0.910156 -0.160156 0.945312 -0.144531 C 0.964844 -0.136719 0.992188 -0.128906 1.035156 -0.121094 C 1.074219 -0.113281 1.109375 -0.109375 1.136719 -0.105469 L 1.136719 0 L 0.09375 0 L 0.09375 -0.105469 C 0.121094 -0.109375 0.15625 -0.113281 0.199219 -0.117188 C 0.242188 -0.121094 0.273438 -0.128906 0.289062 -0.136719 C 0.324219 -0.148438 0.347656 -0.167969 0.359375 -0.1875 C 0.371094 -0.210938 0.375 -0.238281 0.375 -0.273438 L 0.375 -1.632812 C 0.375 -1.664062 0.371094 -1.691406 0.359375 -1.714844 C 0.347656 -1.738281 0.324219 -1.757812 0.289062 -1.773438 C 0.261719 -1.785156 0.230469 -1.792969 0.1875 -1.800781 C 0.144531 -1.808594 0.113281 -1.816406 0.09375 -1.820312 L 0.09375 -1.925781 L 1.15625 -1.925781 C 1.402344 -1.925781 1.589844 -1.886719 1.710938 -1.804688 C 1.835938 -1.726562 1.898438 -1.605469 1.898438 -1.441406 M 1.367188 -1.375 C 1.367188 -1.519531 1.339844 -1.625 1.28125 -1.695312 C 1.222656 -1.765625 1.117188 -1.800781 0.96875 -1.800781 L 0.855469 -1.800781 L 0.855469 -0.957031 L 0.914062 -0.957031 C 1.0625 -0.957031 1.175781 -0.988281 1.253906 -1.058594 C 1.328125 -1.125 1.367188 -1.230469 1.367188 -1.375 Z "/>
</g>
<g id="glyph-0-1">
<path d="M 1.621094 0 L 0.148438 0 L 0.148438 -0.246094 C 0.214844 -0.3125 0.285156 -0.371094 0.359375 -0.421875 C 0.4375 -0.476562 0.515625 -0.523438 0.59375 -0.566406 C 0.675781 -0.609375 0.75 -0.652344 0.804688 -0.683594 C 0.863281 -0.71875 0.90625 -0.757812 0.941406 -0.792969 C 0.972656 -0.828125 0.996094 -0.867188 1.007812 -0.910156 C 1.023438 -0.953125 1.03125 -1 1.03125 -1.050781 C 1.03125 -1.164062 1.003906 -1.25 0.949219 -1.300781 C 0.894531 -1.351562 0.824219 -1.378906 0.734375 -1.378906 C 0.703125 -1.378906 0.679688 -1.378906 0.652344 -1.375 C 0.628906 -1.367188 0.601562 -1.363281 0.574219 -1.351562 C 0.589844 -1.308594 0.601562 -1.269531 0.613281 -1.222656 C 0.628906 -1.179688 0.632812 -1.132812 0.632812 -1.078125 C 0.632812 -1.015625 0.609375 -0.964844 0.5625 -0.925781 C 0.519531 -0.886719 0.460938 -0.871094 0.386719 -0.871094 C 0.320312 -0.871094 0.265625 -0.890625 0.226562 -0.9375 C 0.1875 -0.980469 0.164062 -1.035156 0.164062 -1.097656 C 0.164062 -1.207031 0.230469 -1.304688 0.359375 -1.382812 C 0.488281 -1.464844 0.644531 -1.503906 0.828125 -1.503906 C 1.039062 -1.503906 1.214844 -1.46875 1.34375 -1.394531 C 1.476562 -1.320312 1.542969 -1.203125 1.542969 -1.039062 C 1.542969 -0.957031 1.523438 -0.886719 1.488281 -0.835938 C 1.453125 -0.785156 1.402344 -0.738281 1.335938 -0.699219 C 1.273438 -0.664062 1.207031 -0.636719 1.132812 -0.613281 C 1.0625 -0.589844 0.980469 -0.570312 0.898438 -0.550781 C 0.808594 -0.527344 0.730469 -0.503906 0.664062 -0.476562 C 0.597656 -0.453125 0.539062 -0.421875 0.488281 -0.386719 L 0.488281 -0.371094 L 1.621094 -0.371094 Z "/>
</g>
</g>
</defs>
<g fill="rgb(100%, 100%, 100%)" fill-opacity="1">
<use xlink:href="#glyph-0-0" x="30" y="22.546875"/>
<use xlink:href="#glyph-0-1" x="32" y="22.546875"/>
</g>
</svg>
