<?xml version="1.0" encoding="UTF-8"?>
<svg xmlns="http://www.w3.org/2000/svg" xmlns:xlink="http://www.w3.org/1999/xlink" width="1920" height="1080" viewBox="0 0 1920 1080">
<defs>
<g>
<g id="glyph-0-0">
<path d="M 2.597656 -1.996094 C 2.535156 -1.984375 2.472656 -1.960938 2.410156 -1.921875 C 2.347656 -1.882812 2.296875 -1.820312 2.257812 -1.738281 C 2.15625 -1.527344 2.054688 -1.3125 1.957031 -1.097656 C 1.859375 -0.882812 1.765625 -0.675781 1.671875 -0.476562 C 1.640625 -0.414062 1.609375 -0.335938 1.570312 -0.242188 C 1.535156 -0.144531 1.503906 -0.0585938 1.480469 0.0195312 L 1.082031 0.0195312 C 0.914062 -0.367188 0.773438 -0.6875 0.652344 -0.941406 C 0.535156 -1.195312 0.410156 -1.46875 0.28125 -1.761719 C 0.25 -1.828125 0.203125 -1.882812 0.136719 -1.921875 C 0.0742188 -1.960938 0.0078125 -1.984375 -0.0585938 -1.996094 L -0.0585938 -2.152344 L 1.277344 -2.152344 L 1.277344 -1.996094 C 1.230469 -1.992188 1.171875 -1.980469 1.105469 -1.960938 C 1.039062 -1.941406 1.003906 -1.914062 1.003906 -1.882812 C 1.003906 -1.875 1.007812 -1.863281 1.011719 -1.84375 C 1.019531 -1.828125 1.027344 -1.808594 1.035156 -1.785156 C 1.082031 -1.675781 1.152344 -1.519531 1.246094 -1.3125 C 1.339844 -1.105469 1.4375 -0.886719 1.542969 -0.65625 C 1.613281 -0.816406 1.683594 -0.96875 1.75 -1.121094 C 1.816406 -1.273438 1.894531 -1.464844 1.992188 -1.699219 C 2.003906 -1.734375 2.011719 -1.761719 2.015625 -1.785156 C 2.019531 -1.804688 2.019531 -1.820312 2.019531 -1.828125 C 2.019531 -1.851562 2.007812 -1.875 1.980469 -1.894531 C 1.957031 -1.914062 1.925781 -1.933594 1.890625 -1.945312 C 1.855469 -1.960938 1.820312 -1.972656 1.785156 -1.980469 C 1.753906 -1.984375 1.726562 -1.992188 1.703125 -1.996094 L 1.703125 -2.152344 L 2.597656 -2.152344 Z "/>
</g>
<g id="glyph-0-1">
<path d="M 1.964844 -1.0625 L 0.601562 -1.0625 L 0.601562 -1.222656 C 0.636719 -1.222656 0.6875 -1.226562 0.761719 -1.234375 C 0.832031 -1.242188 0.882812 -1.253906 0.910156 -1.261719 C 0.945312 -1.273438 0.96875 -1.292969 0.988281 -1.316406 C 1.007812 -1.339844 1.015625 -1.375 1.015625 -1.421875 L 1.015625 -2.683594 L 0.597656 -2.683594 L 0.597656 -2.863281 L 0.683594 -2.863281 C 0.773438 -2.863281 0.851562 -2.875 0.925781 -2.890625 C 0.996094 -2.910156 1.054688 -2.9375 1.105469 -2.96875 C 1.148438 -2.996094 1.1875 -3.027344 1.21875 -3.058594 C 1.253906 -3.089844 1.277344 -3.117188 1.296875 -3.144531 L 1.589844 -3.144531 C 1.585938 -3.085938 1.582031 -3.007812 1.578125 -2.917969 C 1.574219 -2.824219 1.574219 -2.738281 1.574219 -2.65625 L 1.574219 -1.4375 C 1.574219 -1.398438 1.582031 -1.363281 1.597656 -1.339844 C 1.613281 -1.3125 1.640625 -1.292969 1.671875 -1.277344 C 1.699219 -1.265625 1.746094 -1.253906 1.8125 -1.242188 C 1.878906 -1.230469 1.929688 -1.222656 1.964844 -1.222656 Z "/>
</g>
<g id="glyph-0-2">
<path d="M 1.839844 0.671875 L 0.402344 0.671875 L 0.402344 -3.296875 L 1.839844 -3.296875 L 1.839844 -3.078125 L 1.085938 -3.078125 L 1.085938 0.457031 L 1.839844 0.457031 Z "/>
</g>
<g id="glyph-0-3">
<path d="M 1.496094 0 L 0.125 0 L 0.125 -0.160156 C 0.164062 -0.160156 0.199219 -0.164062 0.238281 -0.167969 C 0.273438 -0.171875 0.304688 -0.179688 0.328125 -0.191406 C 0.375 -0.207031 0.410156 -0.234375 0.425781 -0.265625 C 0.445312 -0.296875 0.457031 -0.339844 0.457031 -0.394531 L 0.457031 -1.65625 C 0.457031 -1.707031 0.445312 -1.753906 0.421875 -1.792969 C 0.398438 -1.828125 0.367188 -1.859375 0.335938 -1.882812 C 0.308594 -1.902344 0.269531 -1.917969 0.214844 -1.933594 C 0.164062 -1.949219 0.113281 -1.960938 0.0703125 -1.964844 L 0.0703125 -2.121094 L 1.136719 -2.179688 L 1.167969 -2.144531 L 1.167969 -0.421875 C 1.167969 -0.371094 1.179688 -0.328125 1.199219 -0.292969 C 1.222656 -0.257812 1.253906 -0.230469 1.292969 -0.214844 C 1.320312 -0.203125 1.355469 -0.191406 1.390625 -0.179688 C 1.421875 -0.171875 1.460938 -0.164062 1.496094 -0.160156 L 1.496094 0 M 1.179688 -2.960938 C 1.179688 -2.851562 1.136719 -2.757812 1.054688 -2.679688 C 0.96875 -2.601562 0.867188 -2.5625 0.753906 -2.5625 C 0.636719 -2.5625 0.535156 -2.601562 0.449219 -2.679688 C 0.367188 -2.757812 0.324219 -2.851562 0.324219 -2.960938 C 0.324219 -3.070312 0.367188 -3.164062 0.449219 -3.242188 C 0.535156 -3.320312 0.636719 -3.359375 0.753906 -3.359375 C 0.871094 -3.359375 0.96875 -3.320312 1.054688 -3.242188 C 1.136719 -3.164062 1.179688 -3.070312 1.179688 -2.960938 Z "/>
</g>
<g id="glyph-0-4">
<path d="M 1.585938 0.671875 L 0.148438 0.671875 L 0.148438 0.457031 L 0.902344 0.457031 L 0.902344 -3.078125 L 0.148438 -3.078125 L 0.148438 -3.296875 L 1.585938 -3.296875 Z "/>
</g>
</g>
</defs>
<g fill="rgb(0%, 70.588235%, 84.705882%)" fill-opacity="1">
<use xlink:href="#glyph-0-0" x="30" y="24.074219"/>
<use xlink:href="#glyph-0-1" x="33" y="24.074219"/>
<use xlink:href="#glyph-0-2" x="35" y="24.074219"/>
<use xlink:href="#glyph-0-3" x="37" y="24.074219"/>
<use xlink:href="#glyph-0-4" x="39" y="24.074219"/>
</g>
</svg>
