<?xml version="1.0" encoding="UTF-8"?>
<svg xmlns="http://www.w3.org/2000/svg" xmlns:xlink="http://www.w3.org/1999/xlink" width="1920" height="1080" viewBox="0 0 1920 1080">
<defs>
<g>
<g id="glyph-0-0">
<path d="M 3.210938 -2.527344 C 3.347656 -2.382812 3.453125 -2.21875 3.515625 -2.035156 C 3.582031 -1.847656 3.617188 -1.65625 3.617188 -1.457031 C 3.617188 -1.21875 3.574219 -1.007812 3.492188 -0.816406 C 3.410156 -0.625 3.296875 -0.464844 3.15625 -0.332031 C 3.003906 -0.195312 2.832031 -0.0898438 2.632812 -0.015625 C 2.433594 0.0546875 2.203125 0.09375 1.945312 0.09375 C 1.671875 0.09375 1.429688 0.0507812 1.222656 -0.0351562 C 1.011719 -0.121094 0.839844 -0.230469 0.699219 -0.371094 C 0.5625 -0.507812 0.457031 -0.671875 0.386719 -0.855469 C 0.316406 -1.042969 0.28125 -1.242188 0.28125 -1.457031 C 0.28125 -1.667969 0.3125 -1.863281 0.382812 -2.046875 C 0.449219 -2.226562 0.554688 -2.390625 0.695312 -2.535156 C 0.832031 -2.679688 1.007812 -2.792969 1.21875 -2.878906 C 1.429688 -2.964844 1.671875 -3.007812 1.949219 -3.007812 C 2.230469 -3.007812 2.480469 -2.964844 2.691406 -2.875 C 2.902344 -2.785156 3.078125 -2.671875 3.210938 -2.527344 M 2.445312 -0.507812 C 2.5 -0.628906 2.535156 -0.765625 2.558594 -0.914062 C 2.582031 -1.0625 2.59375 -1.242188 2.59375 -1.457031 C 2.59375 -1.648438 2.582031 -1.820312 2.5625 -1.976562 C 2.542969 -2.128906 2.507812 -2.265625 2.457031 -2.382812 C 2.40625 -2.507812 2.339844 -2.601562 2.257812 -2.667969 C 2.175781 -2.738281 2.070312 -2.769531 1.949219 -2.769531 C 1.828125 -2.769531 1.722656 -2.738281 1.640625 -2.671875 C 1.558594 -2.605469 1.492188 -2.511719 1.4375 -2.390625 C 1.390625 -2.28125 1.355469 -2.144531 1.335938 -1.984375 C 1.3125 -1.824219 1.300781 -1.648438 1.300781 -1.457031 C 1.300781 -1.257812 1.3125 -1.085938 1.332031 -0.945312 C 1.351562 -0.804688 1.382812 -0.667969 1.433594 -0.539062 C 1.480469 -0.417969 1.546875 -0.324219 1.628906 -0.253906 C 1.714844 -0.179688 1.820312 -0.144531 1.945312 -0.144531 C 2.0625 -0.144531 2.160156 -0.175781 2.246094 -0.242188 C 2.332031 -0.304688 2.398438 -0.394531 2.445312 -0.507812 Z "/>
</g>
<g id="glyph-0-1">
<path d="M 1.449219 -0.449219 C 1.449219 -0.308594 1.394531 -0.183594 1.289062 -0.078125 C 1.183594 0.0273438 1.058594 0.078125 0.914062 0.078125 C 0.769531 0.078125 0.640625 0.0273438 0.535156 -0.078125 C 0.429688 -0.179688 0.378906 -0.304688 0.378906 -0.449219 C 0.378906 -0.59375 0.429688 -0.71875 0.535156 -0.824219 C 0.640625 -0.933594 0.769531 -0.984375 0.914062 -0.984375 C 1.058594 -0.984375 1.183594 -0.929688 1.289062 -0.824219 C 1.394531 -0.71875 1.449219 -0.59375 1.449219 -0.449219 Z "/>
</g>
<g id="glyph-0-2">
<path d="M 3.421875 -0.0273438 L 2.835938 -0.0273438 L 2.835938 1 L 1.929688 1 L 1.929688 -0.0273438 L 0.132812 -0.0273438 L 0.132812 -0.527344 L 2.082031 -2.992188 L 2.835938 -2.992188 L 2.835938 -0.597656 L 3.421875 -0.597656 L 3.421875 -0.0273438 M 1.929688 -0.597656 L 1.929688 -2.34375 L 0.550781 -0.597656 Z "/>
</g>
<g id="glyph-0-3">
<path d="M 2.566406 0 L 0.328125 0 L 0.328125 -0.207031 C 0.382812 -0.210938 0.46875 -0.21875 0.585938 -0.234375 C 0.707031 -0.246094 0.785156 -0.261719 0.832031 -0.277344 C 0.882812 -0.292969 0.925781 -0.324219 0.957031 -0.367188 C 0.988281 -0.414062 1.003906 -0.472656 1.003906 -0.546875 L 1.003906 -2.269531 L 0.316406 -2.269531 L 0.316406 -2.527344 L 0.464844 -2.527344 C 0.625 -2.527344 0.761719 -2.542969 0.875 -2.578125 C 0.988281 -2.613281 1.085938 -2.652344 1.160156 -2.703125 C 1.238281 -2.753906 1.300781 -2.804688 1.351562 -2.859375 C 1.402344 -2.914062 1.441406 -2.960938 1.46875 -3.003906 L 1.949219 -3.003906 C 1.941406 -2.886719 1.9375 -2.75 1.929688 -2.589844 C 1.925781 -2.433594 1.921875 -2.292969 1.921875 -2.167969 L 1.921875 -0.578125 C 1.921875 -0.511719 1.9375 -0.457031 1.964844 -0.410156 C 1.992188 -0.359375 2.035156 -0.324219 2.085938 -0.296875 C 2.132812 -0.277344 2.210938 -0.257812 2.320312 -0.238281 C 2.433594 -0.21875 2.515625 -0.210938 2.566406 -0.207031 Z "/>
</g>
</g>
</defs>
<g fill="rgb(95.686275%, 63.529412%, 38.039216%)" fill-opacity="1">
<use xlink:href="#glyph-0-0" x="30" y="25.094727"/>
<use xlink:href="#glyph-0-1" x="34" y="25.094727"/>
<use xlink:href="#glyph-0-2" x="36" y="25.094727"/>
<use xlink:href="#glyph-0-3" x="40" y="25.094727"/>
<use xlink:href="#glyph-0-0" x="43" y="25.094727"/>
</g>
</svg>
