<?xml version="1.0" encoding="UTF-8"?>
<svg xmlns="http://www.w3.org/2000/svg" xmlns:xlink="http://www.w3.org/1999/xlink" width="1920" height="1080" viewBox="0 0 1920 1080">
<defs>
<g>
<g id="glyph-0-0">
<path d="M 2.570312 -2.320312 C 2.570312 -2.160156 2.539062 -2.015625 2.476562 -1.894531 C 2.410156 -1.769531 2.324219 -1.667969 2.214844 -1.585938 C 2.101562 -1.503906 1.984375 -1.445312 1.851562 -1.410156 C 1.71875 -1.371094 1.578125 -1.351562 1.433594 -1.351562 L 1.085938 -1.351562 L 1.085938 -0.417969 C 1.085938 -0.367188 1.09375 -0.324219 1.113281 -0.285156 C 1.128906 -0.246094 1.164062 -0.21875 1.214844 -0.199219 C 1.242188 -0.1875 1.289062 -0.179688 1.351562 -0.167969 C 1.417969 -0.160156 1.480469 -0.15625 1.535156 -0.152344 L 1.535156 0 L 0.210938 0 L 0.210938 -0.152344 C 0.246094 -0.15625 0.296875 -0.160156 0.363281 -0.167969 C 0.429688 -0.175781 0.476562 -0.1875 0.5 -0.199219 C 0.542969 -0.214844 0.574219 -0.242188 0.59375 -0.28125 C 0.613281 -0.316406 0.625 -0.363281 0.625 -0.417969 L 0.625 -2.640625 C 0.625 -2.691406 0.617188 -2.738281 0.601562 -2.777344 C 0.589844 -2.816406 0.554688 -2.847656 0.5 -2.867188 C 0.445312 -2.886719 0.390625 -2.902344 0.335938 -2.910156 C 0.28125 -2.917969 0.238281 -2.921875 0.199219 -2.925781 L 0.199219 -3.078125 L 1.605469 -3.078125 C 1.890625 -3.078125 2.121094 -3.011719 2.300781 -2.871094 C 2.480469 -2.734375 2.570312 -2.550781 2.570312 -2.320312 M 1.910156 -1.792969 C 1.957031 -1.863281 1.992188 -1.9375 2.007812 -2.011719 C 2.023438 -2.085938 2.03125 -2.152344 2.03125 -2.210938 C 2.03125 -2.292969 2.019531 -2.378906 2 -2.460938 C 1.980469 -2.546875 1.949219 -2.621094 1.902344 -2.6875 C 1.851562 -2.753906 1.785156 -2.808594 1.703125 -2.84375 C 1.617188 -2.882812 1.515625 -2.902344 1.394531 -2.902344 L 1.085938 -2.902344 L 1.085938 -1.539062 L 1.308594 -1.539062 C 1.464844 -1.539062 1.589844 -1.566406 1.6875 -1.613281 C 1.785156 -1.660156 1.859375 -1.722656 1.910156 -1.792969 Z "/>
</g>
<g id="glyph-0-1">
<path d="M 2.332031 -1 C 2.332031 -0.847656 2.304688 -0.707031 2.25 -0.578125 C 2.195312 -0.445312 2.125 -0.332031 2.035156 -0.242188 C 1.925781 -0.136719 1.8125 -0.0585938 1.683594 -0.0078125 C 1.554688 0.0429688 1.421875 0.0703125 1.28125 0.0703125 C 1.121094 0.0703125 0.976562 0.0390625 0.847656 -0.0195312 C 0.714844 -0.078125 0.605469 -0.164062 0.515625 -0.269531 C 0.421875 -0.382812 0.351562 -0.515625 0.300781 -0.675781 C 0.25 -0.832031 0.222656 -1.011719 0.222656 -1.210938 C 0.222656 -1.726562 0.378906 -2.160156 0.683594 -2.515625 C 0.992188 -2.871094 1.402344 -3.082031 1.921875 -3.152344 L 1.960938 -2.957031 L 1.765625 -2.921875 C 1.449219 -2.820312 1.207031 -2.664062 1.035156 -2.449219 C 0.863281 -2.234375 0.753906 -1.976562 0.703125 -1.671875 C 0.828125 -1.78125 0.949219 -1.855469 1.070312 -1.902344 C 1.195312 -1.945312 1.320312 -1.96875 1.457031 -1.96875 C 1.699219 -1.96875 1.902344 -1.875 2.074219 -1.691406 C 2.246094 -1.503906 2.332031 -1.273438 2.332031 -1 M 1.863281 -0.941406 C 1.863281 -1.175781 1.808594 -1.363281 1.699219 -1.507812 C 1.59375 -1.648438 1.449219 -1.71875 1.265625 -1.71875 C 1.160156 -1.71875 1.058594 -1.699219 0.964844 -1.65625 C 0.871094 -1.617188 0.78125 -1.550781 0.695312 -1.453125 C 0.691406 -1.4375 0.691406 -1.394531 0.6875 -1.332031 C 0.683594 -1.269531 0.683594 -1.222656 0.683594 -1.183594 C 0.683594 -0.847656 0.738281 -0.582031 0.847656 -0.390625 C 0.960938 -0.199219 1.105469 -0.101562 1.285156 -0.101562 C 1.457031 -0.101562 1.597656 -0.175781 1.703125 -0.328125 C 1.808594 -0.476562 1.863281 -0.679688 1.863281 -0.941406 Z "/>
</g>
</g>
</defs>
<g fill="rgb(78.431373%, 78.431373%, 78.431373%)" fill-opacity="1">
<use xlink:href="#glyph-0-0" x="30" y="24.074219"/>
<use xlink:href="#glyph-0-1" x="33" y="24.074219"/>
</g>
</svg>
