<?xml version="1.0" encoding="UTF-8"?>
<svg xmlns="http://www.w3.org/2000/svg" xmlns:xlink="http://www.w3.org/1999/xlink" width="1920" height="1080" viewBox="0 0 1920 1080">
<defs>
<g>
<g id="glyph-0-0">
<path d="M 2.570312 -2.023438 C 2.679688 -1.90625 2.761719 -1.773438 2.8125 -1.625 C 2.867188 -1.476562 2.890625 -1.324219 2.890625 -1.164062 C 2.890625 -0.976562 2.859375 -0.804688 2.792969 -0.652344 C 2.726562 -0.5 2.636719 -0.371094 2.523438 -0.265625 C 2.402344 -0.15625 2.265625 -0.0703125 2.105469 -0.0117188 C 1.945312 0.0429688 1.761719 0.0742188 1.554688 0.0742188 C 1.335938 0.0742188 1.144531 0.0390625 0.976562 -0.0273438 C 0.808594 -0.0976562 0.671875 -0.1875 0.558594 -0.296875 C 0.449219 -0.40625 0.367188 -0.535156 0.308594 -0.6875 C 0.253906 -0.835938 0.222656 -0.996094 0.222656 -1.164062 C 0.222656 -1.335938 0.25 -1.492188 0.304688 -1.636719 C 0.359375 -1.78125 0.441406 -1.910156 0.554688 -2.027344 C 0.664062 -2.144531 0.804688 -2.234375 0.972656 -2.304688 C 1.144531 -2.371094 1.339844 -2.40625 1.558594 -2.40625 C 1.785156 -2.40625 1.984375 -2.371094 2.152344 -2.300781 C 2.320312 -2.230469 2.460938 -2.136719 2.570312 -2.023438 M 1.957031 -0.40625 C 2 -0.503906 2.027344 -0.609375 2.046875 -0.730469 C 2.066406 -0.847656 2.074219 -0.996094 2.074219 -1.164062 C 2.074219 -1.320312 2.066406 -1.457031 2.050781 -1.578125 C 2.03125 -1.703125 2.003906 -1.8125 1.964844 -1.90625 C 1.925781 -2.003906 1.871094 -2.082031 1.804688 -2.136719 C 1.738281 -2.1875 1.65625 -2.214844 1.558594 -2.214844 C 1.460938 -2.214844 1.378906 -2.1875 1.3125 -2.136719 C 1.246094 -2.082031 1.191406 -2.007812 1.148438 -1.910156 C 1.113281 -1.824219 1.085938 -1.714844 1.066406 -1.585938 C 1.050781 -1.460938 1.042969 -1.320312 1.042969 -1.164062 C 1.042969 -1.003906 1.050781 -0.867188 1.0625 -0.753906 C 1.078125 -0.640625 1.105469 -0.535156 1.148438 -0.429688 C 1.183594 -0.335938 1.234375 -0.257812 1.304688 -0.203125 C 1.371094 -0.144531 1.457031 -0.113281 1.554688 -0.113281 C 1.648438 -0.113281 1.730469 -0.140625 1.796875 -0.191406 C 1.863281 -0.246094 1.917969 -0.316406 1.957031 -0.40625 Z "/>
</g>
<g id="glyph-0-1">
<path d="M 1.160156 -0.359375 C 1.160156 -0.246094 1.117188 -0.148438 1.03125 -0.0625 C 0.945312 0.0195312 0.847656 0.0625 0.730469 0.0625 C 0.613281 0.0625 0.511719 0.0195312 0.429688 -0.0625 C 0.34375 -0.144531 0.300781 -0.246094 0.300781 -0.359375 C 0.300781 -0.476562 0.34375 -0.574219 0.429688 -0.660156 C 0.511719 -0.746094 0.613281 -0.789062 0.730469 -0.789062 C 0.847656 -0.789062 0.945312 -0.746094 1.03125 -0.660156 C 1.117188 -0.574219 1.160156 -0.472656 1.160156 -0.359375 Z "/>
</g>
<g id="glyph-0-2">
<path d="M 2.589844 0 L 0.238281 0 L 0.238281 -0.394531 C 0.339844 -0.496094 0.453125 -0.59375 0.578125 -0.679688 C 0.699219 -0.765625 0.824219 -0.839844 0.949219 -0.90625 C 1.085938 -0.976562 1.195312 -1.042969 1.289062 -1.097656 C 1.378906 -1.152344 1.453125 -1.210938 1.503906 -1.273438 C 1.554688 -1.328125 1.59375 -1.390625 1.617188 -1.457031 C 1.636719 -1.523438 1.648438 -1.597656 1.648438 -1.679688 C 1.648438 -1.863281 1.605469 -1.996094 1.519531 -2.082031 C 1.429688 -2.164062 1.316406 -2.207031 1.171875 -2.207031 C 1.128906 -2.207031 1.085938 -2.203125 1.046875 -2.195312 C 1.003906 -2.191406 0.964844 -2.179688 0.921875 -2.160156 C 0.941406 -2.097656 0.960938 -2.027344 0.984375 -1.960938 C 1.003906 -1.890625 1.011719 -1.8125 1.011719 -1.726562 C 1.011719 -1.625 0.976562 -1.542969 0.902344 -1.480469 C 0.828125 -1.421875 0.734375 -1.390625 0.621094 -1.390625 C 0.511719 -1.390625 0.425781 -1.425781 0.359375 -1.496094 C 0.296875 -1.566406 0.265625 -1.652344 0.265625 -1.753906 C 0.265625 -1.933594 0.367188 -2.085938 0.574219 -2.214844 C 0.777344 -2.34375 1.027344 -2.40625 1.324219 -2.40625 C 1.664062 -2.40625 1.941406 -2.347656 2.152344 -2.230469 C 2.363281 -2.113281 2.46875 -1.925781 2.46875 -1.664062 C 2.46875 -1.53125 2.4375 -1.421875 2.382812 -1.339844 C 2.328125 -1.257812 2.246094 -1.183594 2.136719 -1.121094 C 2.039062 -1.066406 1.933594 -1.019531 1.816406 -0.984375 C 1.695312 -0.945312 1.570312 -0.910156 1.4375 -0.878906 C 1.292969 -0.84375 1.167969 -0.804688 1.0625 -0.765625 C 0.957031 -0.722656 0.863281 -0.675781 0.777344 -0.617188 L 0.777344 -0.59375 L 2.589844 -0.59375 Z "/>
</g>
<g id="glyph-0-3">
<path d="M 2.09375 -1.027344 C 2.199219 -0.957031 2.292969 -0.859375 2.367188 -0.738281 C 2.4375 -0.613281 2.476562 -0.464844 2.476562 -0.28125 C 2.476562 0.0351562 2.351562 0.296875 2.105469 0.496094 C 1.859375 0.699219 1.542969 0.800781 1.160156 0.800781 C 0.863281 0.800781 0.617188 0.738281 0.417969 0.609375 C 0.21875 0.484375 0.121094 0.332031 0.121094 0.160156 C 0.121094 0.0546875 0.15625 -0.03125 0.21875 -0.101562 C 0.285156 -0.171875 0.375 -0.207031 0.484375 -0.207031 C 0.597656 -0.207031 0.691406 -0.175781 0.765625 -0.117188 C 0.839844 -0.0546875 0.875 0.0273438 0.875 0.128906 C 0.875 0.203125 0.863281 0.28125 0.835938 0.367188 C 0.8125 0.453125 0.792969 0.515625 0.777344 0.5625 C 0.8125 0.574219 0.851562 0.585938 0.898438 0.589844 C 0.945312 0.597656 0.988281 0.601562 1.027344 0.601562 C 1.109375 0.601562 1.191406 0.582031 1.273438 0.546875 C 1.351562 0.507812 1.417969 0.453125 1.476562 0.382812 C 1.539062 0.304688 1.589844 0.207031 1.625 0.0976562 C 1.65625 -0.015625 1.671875 -0.140625 1.671875 -0.28125 C 1.671875 -0.484375 1.617188 -0.652344 1.507812 -0.78125 C 1.398438 -0.914062 1.257812 -0.980469 1.085938 -0.980469 C 0.949219 -0.980469 0.835938 -0.953125 0.746094 -0.898438 C 0.652344 -0.84375 0.570312 -0.773438 0.5 -0.683594 L 0.332031 -0.738281 L 0.542969 -2.335938 L 2.375 -2.335938 L 2.375 -1.738281 L 0.699219 -1.738281 L 0.609375 -1.023438 C 0.6875 -1.070312 0.789062 -1.117188 0.910156 -1.164062 C 1.035156 -1.207031 1.179688 -1.230469 1.34375 -1.230469 C 1.472656 -1.230469 1.601562 -1.214844 1.726562 -1.1875 C 1.851562 -1.160156 1.972656 -1.105469 2.09375 -1.027344 Z "/>
</g>
</g>
</defs>
<g fill="rgb(17.647059%, 77.647059%, 32.54902%)" fill-opacity="1">
<use xlink:href="#glyph-0-0" x="30" y="24.074219"/>
<use xlink:href="#glyph-0-1" x="33" y="24.074219"/>
<use xlink:href="#glyph-0-2" x="34" y="24.074219"/>
<use xlink:href="#glyph-0-3" x="37" y="24.074219"/>
<use xlink:href="#glyph-0-0" x="40" y="24.074219"/>
</g>
</svg>
