<?xml version="1.0" encoding="UTF-8"?>
<svg xmlns="http://www.w3.org/2000/svg" xmlns:xlink="http://www.w3.org/1999/xlink" width="1920" height="1080" viewBox="0 0 1920 1080">
<defs>
<g>
<g id="glyph-0-0">
<path d="M 2.085938 -1.882812 C 2.085938 -1.753906 2.0625 -1.640625 2.011719 -1.539062 C 1.960938 -1.4375 1.890625 -1.355469 1.796875 -1.289062 C 1.707031 -1.222656 1.609375 -1.175781 1.503906 -1.144531 C 1.398438 -1.113281 1.285156 -1.097656 1.164062 -1.097656 L 0.882812 -1.097656 L 0.882812 -0.339844 C 0.882812 -0.300781 0.890625 -0.261719 0.902344 -0.230469 C 0.917969 -0.199219 0.945312 -0.175781 0.988281 -0.160156 C 1.007812 -0.152344 1.046875 -0.144531 1.097656 -0.136719 C 1.152344 -0.128906 1.203125 -0.125 1.246094 -0.125 L 1.246094 0 L 0.171875 0 L 0.171875 -0.125 C 0.199219 -0.128906 0.242188 -0.132812 0.296875 -0.136719 C 0.347656 -0.144531 0.386719 -0.152344 0.40625 -0.160156 C 0.441406 -0.175781 0.46875 -0.199219 0.484375 -0.226562 C 0.5 -0.257812 0.507812 -0.292969 0.507812 -0.339844 L 0.507812 -2.144531 C 0.507812 -2.1875 0.5 -2.222656 0.488281 -2.257812 C 0.476562 -2.289062 0.449219 -2.3125 0.40625 -2.332031 C 0.363281 -2.347656 0.316406 -2.355469 0.273438 -2.363281 C 0.230469 -2.371094 0.191406 -2.375 0.160156 -2.375 L 0.160156 -2.5 L 1.304688 -2.5 C 1.535156 -2.5 1.722656 -2.445312 1.871094 -2.332031 C 2.015625 -2.222656 2.085938 -2.070312 2.085938 -1.882812 M 1.550781 -1.457031 C 1.589844 -1.515625 1.617188 -1.574219 1.628906 -1.632812 C 1.644531 -1.695312 1.648438 -1.75 1.648438 -1.796875 C 1.648438 -1.863281 1.640625 -1.933594 1.625 -2 C 1.609375 -2.070312 1.582031 -2.132812 1.542969 -2.183594 C 1.503906 -2.238281 1.449219 -2.28125 1.382812 -2.3125 C 1.316406 -2.34375 1.230469 -2.355469 1.132812 -2.355469 L 0.882812 -2.355469 L 0.882812 -1.25 L 1.0625 -1.25 C 1.191406 -1.25 1.292969 -1.269531 1.371094 -1.3125 C 1.453125 -1.351562 1.511719 -1.398438 1.550781 -1.457031 Z "/>
</g>
<g id="glyph-0-1">
<path d="M 1.910156 -0.160156 L 1.554688 -0.160156 L 1.554688 0.644531 L 1.214844 0.644531 L 1.214844 -0.160156 L 0.0859375 -0.160156 L 0.0859375 -0.429688 L 1.324219 -1.9375 L 1.554688 -1.9375 L 1.554688 -0.390625 L 1.910156 -0.390625 L 1.910156 -0.160156 M 1.214844 -0.390625 L 1.214844 -1.546875 L 0.261719 -0.390625 Z "/>
</g>
</g>
</defs>
<g fill="rgb(78.431373%, 78.431373%, 78.431373%)" fill-opacity="1">
<use xlink:href="#glyph-0-0" x="30" y="23.310547"/>
<use xlink:href="#glyph-0-1" x="32" y="23.310547"/>
</g>
</svg>
