<?xml version="1.0" encoding="UTF-8"?>
<svg xmlns="http://www.w3.org/2000/svg" xmlns:xlink="http://www.w3.org/1999/xlink" width="1920" height="1080" viewBox="0 0 1920 1080">
<defs>
<g>
<g id="glyph-0-0">
<path d="M 2.410156 -2.132812 C 2.34375 -2.121094 2.277344 -2.097656 2.214844 -2.058594 C 2.152344 -2.019531 2.097656 -1.953125 2.054688 -1.859375 C 1.964844 -1.652344 1.871094 -1.4375 1.773438 -1.214844 C 1.675781 -0.992188 1.574219 -0.753906 1.472656 -0.507812 C 1.441406 -0.4375 1.40625 -0.355469 1.375 -0.257812 C 1.339844 -0.160156 1.308594 -0.0703125 1.277344 0.0195312 L 1.097656 0.0195312 C 0.953125 -0.339844 0.816406 -0.667969 0.695312 -0.96875 C 0.570312 -1.265625 0.445312 -1.570312 0.3125 -1.882812 C 0.28125 -1.953125 0.230469 -2.007812 0.164062 -2.046875 C 0.09375 -2.085938 0.0234375 -2.109375 -0.0429688 -2.121094 L -0.0429688 -2.273438 L 1.007812 -2.273438 L 1.007812 -2.113281 C 0.960938 -2.109375 0.90625 -2.101562 0.835938 -2.082031 C 0.765625 -2.066406 0.730469 -2.042969 0.730469 -2.011719 C 0.730469 -2.007812 0.734375 -1.996094 0.742188 -1.976562 C 0.75 -1.957031 0.757812 -1.933594 0.765625 -1.910156 C 0.828125 -1.753906 0.917969 -1.535156 1.03125 -1.253906 C 1.148438 -0.972656 1.242188 -0.746094 1.3125 -0.574219 C 1.367188 -0.707031 1.4375 -0.871094 1.523438 -1.066406 C 1.605469 -1.261719 1.695312 -1.484375 1.792969 -1.726562 C 1.808594 -1.765625 1.824219 -1.804688 1.835938 -1.839844 C 1.851562 -1.878906 1.859375 -1.914062 1.859375 -1.949219 C 1.859375 -1.976562 1.84375 -2 1.820312 -2.019531 C 1.792969 -2.042969 1.765625 -2.058594 1.730469 -2.074219 C 1.695312 -2.089844 1.660156 -2.101562 1.625 -2.109375 C 1.589844 -2.117188 1.5625 -2.121094 1.542969 -2.125 L 1.542969 -2.273438 L 2.410156 -2.273438 Z "/>
</g>
<g id="glyph-0-1">
<path d="M 2.480469 -1.0625 C 2.480469 -0.902344 2.449219 -0.753906 2.390625 -0.613281 C 2.335938 -0.472656 2.257812 -0.355469 2.160156 -0.253906 C 2.046875 -0.144531 1.925781 -0.0625 1.789062 -0.0078125 C 1.652344 0.046875 1.511719 0.0742188 1.363281 0.0742188 C 1.191406 0.0742188 1.039062 0.0429688 0.898438 -0.0195312 C 0.761719 -0.0820312 0.644531 -0.171875 0.546875 -0.289062 C 0.449219 -0.40625 0.371094 -0.546875 0.316406 -0.714844 C 0.265625 -0.886719 0.238281 -1.074219 0.238281 -1.285156 C 0.238281 -1.835938 0.402344 -2.296875 0.726562 -2.671875 C 1.054688 -3.050781 1.492188 -3.273438 2.039062 -3.351562 L 2.082031 -3.144531 L 1.875 -3.105469 C 1.542969 -3 1.285156 -2.832031 1.101562 -2.605469 C 0.917969 -2.375 0.800781 -2.101562 0.746094 -1.777344 C 0.878906 -1.890625 1.011719 -1.972656 1.140625 -2.019531 C 1.269531 -2.066406 1.40625 -2.089844 1.546875 -2.089844 C 1.804688 -2.089844 2.023438 -1.992188 2.207031 -1.796875 C 2.386719 -1.601562 2.480469 -1.355469 2.480469 -1.0625 M 1.980469 -1 C 1.980469 -1.25 1.921875 -1.449219 1.808594 -1.601562 C 1.691406 -1.75 1.539062 -1.828125 1.347656 -1.828125 C 1.230469 -1.828125 1.125 -1.804688 1.023438 -1.761719 C 0.925781 -1.71875 0.832031 -1.644531 0.738281 -1.546875 C 0.738281 -1.527344 0.734375 -1.484375 0.730469 -1.417969 C 0.726562 -1.351562 0.726562 -1.296875 0.726562 -1.257812 C 0.726562 -0.898438 0.785156 -0.617188 0.902344 -0.414062 C 1.019531 -0.210938 1.175781 -0.109375 1.367188 -0.109375 C 1.550781 -0.109375 1.699219 -0.1875 1.808594 -0.347656 C 1.921875 -0.507812 1.980469 -0.722656 1.980469 -1 Z "/>
</g>
</g>
</defs>
<g fill="rgb(95.686275%, 63.529412%, 38.039216%)" fill-opacity="1">
<use xlink:href="#glyph-0-0" x="30" y="24.331055"/>
<use xlink:href="#glyph-0-1" x="32" y="24.331055"/>
</g>
</svg>
