<?xml version="1.0" encoding="UTF-8"?>
<svg xmlns="http://www.w3.org/2000/svg" xmlns:xlink="http://www.w3.org/1999/xlink" width="1920" height="1080" viewBox="0 0 1920 1080">
<defs>
<g>
<g id="glyph-0-0">
<path d="M 3.414062 -2.597656 C 3.414062 -2.402344 3.375 -2.234375 3.292969 -2.09375 C 3.214844 -1.953125 3.101562 -1.839844 2.960938 -1.75 C 2.816406 -1.660156 2.648438 -1.59375 2.460938 -1.554688 C 2.273438 -1.511719 2.0625 -1.492188 1.828125 -1.492188 L 1.542969 -1.492188 L 1.542969 -0.515625 C 1.542969 -0.460938 1.554688 -0.40625 1.574219 -0.363281 C 1.597656 -0.320312 1.640625 -0.289062 1.703125 -0.261719 C 1.734375 -0.25 1.789062 -0.234375 1.859375 -0.21875 C 1.933594 -0.203125 1.996094 -0.195312 2.046875 -0.191406 L 2.046875 0 L 0.167969 0 L 0.167969 -0.191406 C 0.214844 -0.195312 0.277344 -0.203125 0.355469 -0.210938 C 0.433594 -0.21875 0.488281 -0.230469 0.519531 -0.242188 C 0.582031 -0.269531 0.625 -0.300781 0.644531 -0.339844 C 0.667969 -0.375 0.675781 -0.429688 0.675781 -0.496094 L 0.675781 -2.9375 C 0.675781 -2.996094 0.667969 -3.046875 0.648438 -3.085938 C 0.628906 -3.128906 0.585938 -3.164062 0.519531 -3.191406 C 0.472656 -3.210938 0.414062 -3.226562 0.339844 -3.242188 C 0.261719 -3.257812 0.207031 -3.269531 0.167969 -3.273438 L 0.167969 -3.464844 L 2.078125 -3.464844 C 2.527344 -3.464844 2.863281 -3.394531 3.082031 -3.25 C 3.304688 -3.109375 3.414062 -2.890625 3.414062 -2.597656 M 2.464844 -2.472656 C 2.464844 -2.734375 2.410156 -2.925781 2.304688 -3.054688 C 2.199219 -3.179688 2.015625 -3.242188 1.746094 -3.242188 L 1.542969 -3.242188 L 1.542969 -1.722656 L 1.644531 -1.722656 C 1.914062 -1.722656 2.117188 -1.78125 2.253906 -1.90625 C 2.394531 -2.027344 2.464844 -2.21875 2.464844 -2.472656 Z "/>
</g>
<g id="glyph-0-1">
<path d="M 2.308594 0 L 0.296875 0 L 0.296875 -0.1875 C 0.34375 -0.1875 0.421875 -0.195312 0.527344 -0.210938 C 0.636719 -0.222656 0.707031 -0.234375 0.746094 -0.25 C 0.796875 -0.265625 0.835938 -0.292969 0.863281 -0.332031 C 0.890625 -0.371094 0.902344 -0.425781 0.902344 -0.492188 L 0.902344 -2.039062 L 0.285156 -2.039062 L 0.285156 -2.273438 L 0.421875 -2.273438 C 0.5625 -2.273438 0.683594 -2.289062 0.789062 -2.320312 C 0.890625 -2.351562 0.976562 -2.386719 1.046875 -2.429688 C 1.113281 -2.476562 1.171875 -2.523438 1.21875 -2.574219 C 1.261719 -2.621094 1.296875 -2.664062 1.324219 -2.703125 L 1.753906 -2.703125 C 1.75 -2.597656 1.742188 -2.472656 1.738281 -2.332031 C 1.734375 -2.191406 1.730469 -2.0625 1.730469 -1.949219 L 1.730469 -0.519531 C 1.730469 -0.460938 1.742188 -0.410156 1.769531 -0.367188 C 1.792969 -0.324219 1.832031 -0.292969 1.878906 -0.269531 C 1.917969 -0.25 1.992188 -0.230469 2.089844 -0.214844 C 2.1875 -0.199219 2.261719 -0.1875 2.308594 -0.1875 Z "/>
</g>
</g>
</defs>
<g fill="rgb(100%, 100%, 100%)" fill-opacity="1">
<use xlink:href="#glyph-0-0" x="30" y="24.584961"/>
<use xlink:href="#glyph-0-1" x="34" y="24.584961"/>
</g>
</svg>
