<?xml version="1.0" encoding="UTF-8"?>
<svg xmlns="http://www.w3.org/2000/svg" xmlns:xlink="http://www.w3.org/1999/xlink" width="1920" height="1080" viewBox="0 0 1920 1080">
<defs>
<g>
<g id="glyph-0-0">
<path d="M 3.53125 -3.191406 C 3.53125 -2.96875 3.488281 -2.773438 3.402344 -2.601562 C 3.316406 -2.433594 3.195312 -2.292969 3.042969 -2.179688 C 2.890625 -2.070312 2.726562 -1.988281 2.546875 -1.9375 C 2.363281 -1.882812 2.171875 -1.859375 1.96875 -1.859375 L 1.496094 -1.859375 L 1.496094 -0.574219 C 1.496094 -0.507812 1.507812 -0.445312 1.527344 -0.390625 C 1.550781 -0.339844 1.597656 -0.300781 1.671875 -0.273438 C 1.707031 -0.257812 1.769531 -0.246094 1.859375 -0.234375 C 1.949219 -0.222656 2.035156 -0.214844 2.109375 -0.210938 L 2.109375 0 L 0.292969 0 L 0.292969 -0.210938 C 0.339844 -0.214844 0.410156 -0.222656 0.5 -0.234375 C 0.589844 -0.242188 0.652344 -0.253906 0.6875 -0.273438 C 0.75 -0.296875 0.792969 -0.335938 0.820312 -0.386719 C 0.847656 -0.433594 0.859375 -0.5 0.859375 -0.574219 L 0.859375 -3.632812 C 0.859375 -3.699219 0.847656 -3.761719 0.828125 -3.820312 C 0.808594 -3.875 0.761719 -3.917969 0.6875 -3.945312 C 0.613281 -3.96875 0.539062 -3.988281 0.464844 -4 C 0.390625 -4.011719 0.324219 -4.019531 0.273438 -4.023438 L 0.273438 -4.234375 L 2.203125 -4.234375 C 2.597656 -4.234375 2.917969 -4.140625 3.164062 -3.949219 C 3.410156 -3.757812 3.53125 -3.507812 3.53125 -3.191406 M 2.625 -2.46875 C 2.691406 -2.5625 2.738281 -2.660156 2.761719 -2.765625 C 2.78125 -2.867188 2.792969 -2.957031 2.792969 -3.039062 C 2.792969 -3.152344 2.78125 -3.269531 2.753906 -3.386719 C 2.726562 -3.503906 2.679688 -3.605469 2.613281 -3.695312 C 2.542969 -3.789062 2.453125 -3.859375 2.339844 -3.910156 C 2.226562 -3.964844 2.085938 -3.988281 1.914062 -3.988281 L 1.496094 -3.988281 L 1.496094 -2.117188 L 1.800781 -2.117188 C 2.015625 -2.117188 2.1875 -2.152344 2.324219 -2.21875 C 2.457031 -2.285156 2.558594 -2.367188 2.625 -2.46875 Z "/>
</g>
<g id="glyph-0-1">
<path d="M 2.515625 -1.398438 C 2.644531 -1.296875 2.753906 -1.164062 2.84375 -1 C 2.929688 -0.835938 2.972656 -0.632812 2.972656 -0.386719 C 2.972656 0.0390625 2.824219 0.394531 2.53125 0.671875 C 2.242188 0.949219 1.871094 1.089844 1.421875 1.089844 C 1.070312 1.089844 0.777344 1.007812 0.535156 0.839844 C 0.296875 0.675781 0.175781 0.484375 0.175781 0.265625 C 0.175781 0.164062 0.199219 0.0742188 0.25 0 C 0.300781 -0.0742188 0.375 -0.113281 0.480469 -0.113281 C 0.601562 -0.113281 0.691406 -0.0820312 0.753906 -0.0195312 C 0.816406 0.0429688 0.847656 0.113281 0.847656 0.183594 C 0.847656 0.25 0.835938 0.328125 0.816406 0.421875 C 0.792969 0.519531 0.777344 0.589844 0.765625 0.636719 C 0.78125 0.648438 0.804688 0.667969 0.839844 0.691406 C 0.878906 0.714844 0.921875 0.738281 0.96875 0.761719 C 1.019531 0.78125 1.085938 0.800781 1.160156 0.820312 C 1.234375 0.835938 1.320312 0.84375 1.421875 0.84375 C 1.546875 0.84375 1.667969 0.820312 1.78125 0.765625 C 1.894531 0.714844 1.988281 0.636719 2.066406 0.535156 C 2.152344 0.425781 2.21875 0.300781 2.261719 0.15625 C 2.304688 0.015625 2.324219 -0.167969 2.324219 -0.386719 C 2.324219 -0.664062 2.246094 -0.898438 2.089844 -1.082031 C 1.933594 -1.265625 1.730469 -1.359375 1.472656 -1.359375 C 1.316406 -1.359375 1.167969 -1.328125 1.027344 -1.269531 C 0.890625 -1.207031 0.765625 -1.109375 0.65625 -0.96875 L 0.457031 -1.046875 L 0.710938 -3.203125 L 2.847656 -3.203125 L 2.847656 -2.671875 L 0.949219 -2.671875 L 0.796875 -1.40625 C 0.886719 -1.46875 1.003906 -1.53125 1.148438 -1.59375 C 1.296875 -1.65625 1.457031 -1.6875 1.632812 -1.6875 C 1.777344 -1.6875 1.925781 -1.667969 2.082031 -1.621094 C 2.238281 -1.578125 2.382812 -1.503906 2.515625 -1.398438 Z "/>
</g>
</g>
</defs>
<g fill="rgb(100%, 100%, 100%)" fill-opacity="1">
<use xlink:href="#glyph-0-0" x="30" y="25.603516"/>
<use xlink:href="#glyph-0-1" x="34" y="25.603516"/>
</g>
</svg>
