<?xml version="1.0" encoding="UTF-8"?>
<svg xmlns="http://www.w3.org/2000/svg" xmlns:xlink="http://www.w3.org/1999/xlink" width="1920" height="1080" viewBox="0 0 1920 1080">
<defs>
<g>
<g id="glyph-0-0">
<path d="M 2.410156 -1.894531 C 2.511719 -1.789062 2.589844 -1.664062 2.636719 -1.523438 C 2.6875 -1.386719 2.710938 -1.242188 2.710938 -1.09375 C 2.710938 -0.914062 2.679688 -0.753906 2.621094 -0.613281 C 2.558594 -0.46875 2.472656 -0.347656 2.367188 -0.25 C 2.253906 -0.144531 2.121094 -0.0664062 1.972656 -0.0117188 C 1.824219 0.0429688 1.652344 0.0703125 1.457031 0.0703125 C 1.253906 0.0703125 1.074219 0.0390625 0.917969 -0.0273438 C 0.761719 -0.0898438 0.628906 -0.175781 0.523438 -0.277344 C 0.421875 -0.382812 0.34375 -0.503906 0.289062 -0.644531 C 0.238281 -0.78125 0.210938 -0.933594 0.210938 -1.09375 C 0.210938 -1.25 0.234375 -1.398438 0.285156 -1.535156 C 0.335938 -1.667969 0.414062 -1.792969 0.519531 -1.902344 C 0.625 -2.007812 0.753906 -2.09375 0.914062 -2.160156 C 1.070312 -2.222656 1.253906 -2.257812 1.460938 -2.257812 C 1.671875 -2.257812 1.859375 -2.222656 2.019531 -2.15625 C 2.175781 -2.089844 2.308594 -2.003906 2.410156 -1.894531 M 1.835938 -0.378906 C 1.875 -0.472656 1.902344 -0.574219 1.917969 -0.683594 C 1.9375 -0.796875 1.945312 -0.933594 1.945312 -1.09375 C 1.945312 -1.234375 1.9375 -1.367188 1.921875 -1.480469 C 1.90625 -1.597656 1.878906 -1.699219 1.84375 -1.789062 C 1.804688 -1.878906 1.753906 -1.953125 1.691406 -2 C 1.628906 -2.050781 1.554688 -2.078125 1.460938 -2.078125 C 1.371094 -2.078125 1.292969 -2.050781 1.230469 -2.003906 C 1.167969 -1.953125 1.117188 -1.882812 1.078125 -1.792969 C 1.042969 -1.710938 1.015625 -1.609375 1 -1.488281 C 0.984375 -1.367188 0.976562 -1.234375 0.976562 -1.09375 C 0.976562 -0.941406 0.984375 -0.8125 0.996094 -0.707031 C 1.011719 -0.601562 1.039062 -0.5 1.078125 -0.402344 C 1.109375 -0.316406 1.160156 -0.242188 1.222656 -0.1875 C 1.285156 -0.136719 1.363281 -0.109375 1.457031 -0.109375 C 1.546875 -0.109375 1.621094 -0.132812 1.683594 -0.179688 C 1.75 -0.230469 1.796875 -0.296875 1.835938 -0.378906 Z "/>
</g>
<g id="glyph-0-1">
<path d="M 1.085938 -0.335938 C 1.085938 -0.230469 1.046875 -0.136719 0.96875 -0.0585938 C 0.886719 0.0195312 0.792969 0.0585938 0.6875 0.0585938 C 0.574219 0.0585938 0.480469 0.0195312 0.402344 -0.0585938 C 0.324219 -0.136719 0.28125 -0.230469 0.28125 -0.335938 C 0.28125 -0.445312 0.324219 -0.539062 0.402344 -0.621094 C 0.480469 -0.699219 0.574219 -0.738281 0.6875 -0.738281 C 0.792969 -0.738281 0.886719 -0.699219 0.96875 -0.617188 C 1.046875 -0.539062 1.085938 -0.445312 1.085938 -0.335938 Z "/>
</g>
<g id="glyph-0-2">
<path d="M 2.429688 0 L 0.222656 0 L 0.222656 -0.367188 C 0.320312 -0.464844 0.425781 -0.554688 0.539062 -0.636719 C 0.65625 -0.714844 0.773438 -0.789062 0.890625 -0.851562 C 1.015625 -0.917969 1.121094 -0.976562 1.207031 -1.027344 C 1.292969 -1.082031 1.359375 -1.136719 1.410156 -1.191406 C 1.457031 -1.246094 1.492188 -1.304688 1.515625 -1.363281 C 1.535156 -1.425781 1.546875 -1.496094 1.546875 -1.574219 C 1.546875 -1.746094 1.503906 -1.871094 1.421875 -1.949219 C 1.34375 -2.03125 1.234375 -2.070312 1.097656 -2.070312 C 1.058594 -2.070312 1.015625 -2.066406 0.980469 -2.058594 C 0.941406 -2.054688 0.902344 -2.042969 0.863281 -2.027344 C 0.882812 -1.964844 0.902344 -1.902344 0.921875 -1.835938 C 0.941406 -1.773438 0.949219 -1.699219 0.949219 -1.621094 C 0.949219 -1.523438 0.914062 -1.445312 0.847656 -1.390625 C 0.777344 -1.332031 0.6875 -1.304688 0.582031 -1.304688 C 0.480469 -1.304688 0.398438 -1.335938 0.339844 -1.402344 C 0.277344 -1.46875 0.25 -1.550781 0.25 -1.644531 C 0.25 -1.8125 0.34375 -1.953125 0.535156 -2.074219 C 0.730469 -2.195312 0.964844 -2.257812 1.242188 -2.257812 C 1.5625 -2.257812 1.820312 -2.203125 2.015625 -2.089844 C 2.214844 -1.980469 2.3125 -1.804688 2.3125 -1.558594 C 2.3125 -1.433594 2.289062 -1.332031 2.234375 -1.253906 C 2.183594 -1.179688 2.105469 -1.109375 2.003906 -1.050781 C 1.914062 -1 1.8125 -0.957031 1.703125 -0.921875 C 1.589844 -0.886719 1.472656 -0.855469 1.347656 -0.824219 C 1.210938 -0.789062 1.09375 -0.753906 0.996094 -0.714844 C 0.894531 -0.679688 0.808594 -0.632812 0.730469 -0.578125 L 0.730469 -0.558594 L 2.429688 -0.558594 Z "/>
</g>
<g id="glyph-0-3">
<path d="M 1.960938 -0.964844 C 2.0625 -0.898438 2.148438 -0.804688 2.21875 -0.691406 C 2.285156 -0.574219 2.320312 -0.433594 2.320312 -0.265625 C 2.320312 0.0351562 2.207031 0.277344 1.972656 0.46875 C 1.742188 0.65625 1.449219 0.75 1.089844 0.75 C 0.808594 0.75 0.578125 0.691406 0.394531 0.570312 C 0.207031 0.453125 0.113281 0.3125 0.113281 0.148438 C 0.113281 0.0507812 0.144531 -0.0273438 0.207031 -0.09375 C 0.269531 -0.160156 0.351562 -0.195312 0.453125 -0.195312 C 0.5625 -0.195312 0.648438 -0.167969 0.71875 -0.109375 C 0.785156 -0.0507812 0.820312 0.0273438 0.820312 0.121094 C 0.820312 0.191406 0.808594 0.265625 0.785156 0.34375 C 0.761719 0.425781 0.742188 0.484375 0.726562 0.527344 C 0.761719 0.539062 0.800781 0.546875 0.84375 0.554688 C 0.886719 0.558594 0.925781 0.5625 0.964844 0.5625 C 1.042969 0.5625 1.117188 0.546875 1.191406 0.511719 C 1.265625 0.476562 1.332031 0.425781 1.382812 0.359375 C 1.445312 0.285156 1.492188 0.195312 1.523438 0.0898438 C 1.554688 -0.0117188 1.570312 -0.132812 1.570312 -0.261719 C 1.570312 -0.453125 1.515625 -0.609375 1.414062 -0.734375 C 1.3125 -0.855469 1.179688 -0.917969 1.015625 -0.917969 C 0.890625 -0.917969 0.785156 -0.890625 0.699219 -0.839844 C 0.613281 -0.789062 0.535156 -0.722656 0.46875 -0.640625 L 0.3125 -0.695312 L 0.507812 -2.191406 L 2.226562 -2.191406 L 2.226562 -1.628906 L 0.65625 -1.628906 L 0.570312 -0.957031 C 0.644531 -1.003906 0.738281 -1.046875 0.855469 -1.089844 C 0.96875 -1.132812 1.105469 -1.152344 1.261719 -1.152344 C 1.382812 -1.152344 1.5 -1.140625 1.617188 -1.113281 C 1.734375 -1.085938 1.851562 -1.039062 1.960938 -0.964844 Z "/>
</g>
</g>
</defs>
<g fill="rgb(17.647059%, 77.647059%, 32.54902%)" fill-opacity="1">
<use xlink:href="#glyph-0-0" x="30" y="23.820312"/>
<use xlink:href="#glyph-0-1" x="33" y="23.820312"/>
<use xlink:href="#glyph-0-2" x="34" y="23.820312"/>
<use xlink:href="#glyph-0-3" x="37" y="23.820312"/>
<use xlink:href="#glyph-0-0" x="39" y="23.820312"/>
</g>
</svg>
