<?xml version="1.0" encoding="UTF-8"?>
<svg xmlns="http://www.w3.org/2000/svg" xmlns:xlink="http://www.w3.org/1999/xlink" width="1920" height="1080" viewBox="0 0 1920 1080">
<defs>
<g>
<g id="glyph-0-0">
<path d="M 3.53125 -3.191406 C 3.53125 -2.96875 3.488281 -2.773438 3.402344 -2.601562 C 3.316406 -2.433594 3.195312 -2.292969 3.042969 -2.179688 C 2.890625 -2.070312 2.726562 -1.988281 2.546875 -1.9375 C 2.363281 -1.882812 2.171875 -1.859375 1.96875 -1.859375 L 1.496094 -1.859375 L 1.496094 -0.574219 C 1.496094 -0.507812 1.507812 -0.445312 1.527344 -0.390625 C 1.550781 -0.339844 1.597656 -0.300781 1.671875 -0.273438 C 1.707031 -0.257812 1.769531 -0.246094 1.859375 -0.234375 C 1.949219 -0.222656 2.035156 -0.214844 2.109375 -0.210938 L 2.109375 0 L 0.292969 0 L 0.292969 -0.210938 C 0.339844 -0.214844 0.410156 -0.222656 0.5 -0.234375 C 0.589844 -0.242188 0.652344 -0.253906 0.6875 -0.273438 C 0.75 -0.296875 0.792969 -0.335938 0.820312 -0.386719 C 0.847656 -0.433594 0.859375 -0.5 0.859375 -0.574219 L 0.859375 -3.632812 C 0.859375 -3.699219 0.847656 -3.761719 0.828125 -3.820312 C 0.808594 -3.875 0.761719 -3.917969 0.6875 -3.945312 C 0.613281 -3.96875 0.539062 -3.988281 0.464844 -4 C 0.390625 -4.011719 0.324219 -4.019531 0.273438 -4.023438 L 0.273438 -4.234375 L 2.203125 -4.234375 C 2.597656 -4.234375 2.917969 -4.140625 3.164062 -3.949219 C 3.410156 -3.757812 3.53125 -3.507812 3.53125 -3.191406 M 2.625 -2.46875 C 2.691406 -2.5625 2.738281 -2.660156 2.761719 -2.765625 C 2.78125 -2.867188 2.792969 -2.957031 2.792969 -3.039062 C 2.792969 -3.152344 2.78125 -3.269531 2.753906 -3.386719 C 2.726562 -3.503906 2.679688 -3.605469 2.613281 -3.695312 C 2.542969 -3.789062 2.453125 -3.859375 2.339844 -3.910156 C 2.226562 -3.964844 2.085938 -3.988281 1.914062 -3.988281 L 1.496094 -3.988281 L 1.496094 -2.117188 L 1.800781 -2.117188 C 2.015625 -2.117188 2.1875 -2.152344 2.324219 -2.21875 C 2.457031 -2.285156 2.558594 -2.367188 2.625 -2.46875 Z "/>
</g>
<g id="glyph-0-1">
<path d="M 3.125 0 L 0.328125 0 L 0.328125 -0.40625 C 0.382812 -0.46875 0.457031 -0.539062 0.550781 -0.617188 C 0.648438 -0.691406 0.761719 -0.773438 0.890625 -0.863281 C 0.972656 -0.917969 1.066406 -0.976562 1.179688 -1.039062 C 1.289062 -1.105469 1.417969 -1.171875 1.558594 -1.25 C 1.714844 -1.332031 1.835938 -1.40625 1.921875 -1.46875 C 2.003906 -1.53125 2.082031 -1.613281 2.152344 -1.703125 C 2.195312 -1.765625 2.234375 -1.84375 2.261719 -1.9375 C 2.289062 -2.027344 2.304688 -2.160156 2.304688 -2.332031 C 2.304688 -2.578125 2.238281 -2.761719 2.105469 -2.878906 C 1.96875 -2.996094 1.800781 -3.050781 1.589844 -3.050781 C 1.460938 -3.050781 1.339844 -3.027344 1.222656 -2.976562 C 1.109375 -2.925781 1.019531 -2.855469 0.964844 -2.765625 C 0.976562 -2.703125 0.996094 -2.625 1.015625 -2.539062 C 1.035156 -2.453125 1.046875 -2.367188 1.046875 -2.28125 C 1.046875 -2.207031 1.015625 -2.140625 0.953125 -2.082031 C 0.890625 -2.023438 0.796875 -1.992188 0.675781 -1.992188 C 0.574219 -1.992188 0.5 -2.027344 0.445312 -2.097656 C 0.390625 -2.164062 0.363281 -2.257812 0.363281 -2.371094 C 0.363281 -2.480469 0.394531 -2.585938 0.453125 -2.695312 C 0.511719 -2.804688 0.597656 -2.902344 0.710938 -2.996094 C 0.820312 -3.085938 0.953125 -3.15625 1.117188 -3.214844 C 1.277344 -3.269531 1.449219 -3.296875 1.636719 -3.296875 C 2.046875 -3.296875 2.371094 -3.207031 2.609375 -3.023438 C 2.847656 -2.84375 2.96875 -2.597656 2.96875 -2.296875 C 2.96875 -2.152344 2.949219 -2.019531 2.90625 -1.898438 C 2.863281 -1.78125 2.792969 -1.675781 2.699219 -1.582031 C 2.59375 -1.480469 2.46875 -1.394531 2.328125 -1.324219 C 2.1875 -1.25 1.96875 -1.148438 1.679688 -1.019531 C 1.507812 -0.941406 1.34375 -0.863281 1.195312 -0.777344 C 1.046875 -0.691406 0.925781 -0.609375 0.828125 -0.53125 L 3.125 -0.53125 Z "/>
</g>
</g>
</defs>
<g fill="rgb(100%, 100%, 100%)" fill-opacity="1">
<use xlink:href="#glyph-0-0" x="30" y="25.603516"/>
<use xlink:href="#glyph-0-1" x="34" y="25.603516"/>
</g>
</svg>
