<?xml version="1.0" encoding="UTF-8"?>
<svg xmlns="http://www.w3.org/2000/svg" xmlns:xlink="http://www.w3.org/1999/xlink" width="1920" height="1080" viewBox="0 0 1920 1080">
<defs>
<g>
<g id="glyph-0-0">
<path d="M 2.128906 -1.882812 C 2.066406 -1.871094 2.007812 -1.847656 1.953125 -1.816406 C 1.898438 -1.78125 1.851562 -1.722656 1.8125 -1.640625 C 1.734375 -1.457031 1.648438 -1.269531 1.566406 -1.070312 C 1.480469 -0.875 1.390625 -0.667969 1.296875 -0.449219 C 1.269531 -0.386719 1.242188 -0.3125 1.210938 -0.226562 C 1.179688 -0.140625 1.152344 -0.0585938 1.128906 0.0195312 L 0.96875 0.0195312 C 0.839844 -0.300781 0.722656 -0.589844 0.613281 -0.851562 C 0.503906 -1.117188 0.390625 -1.386719 0.273438 -1.660156 C 0.246094 -1.722656 0.203125 -1.769531 0.144531 -1.804688 C 0.0820312 -1.839844 0.0234375 -1.863281 -0.0390625 -1.871094 L -0.0390625 -2.007812 L 0.890625 -2.007812 L 0.890625 -1.863281 C 0.847656 -1.863281 0.796875 -1.855469 0.738281 -1.839844 C 0.675781 -1.824219 0.644531 -1.800781 0.644531 -1.773438 C 0.644531 -1.769531 0.648438 -1.757812 0.65625 -1.742188 C 0.664062 -1.726562 0.667969 -1.707031 0.675781 -1.683594 C 0.730469 -1.546875 0.808594 -1.355469 0.910156 -1.105469 C 1.011719 -0.859375 1.09375 -0.65625 1.160156 -0.507812 C 1.207031 -0.621094 1.269531 -0.765625 1.34375 -0.941406 C 1.417969 -1.113281 1.496094 -1.308594 1.582031 -1.523438 C 1.597656 -1.558594 1.609375 -1.59375 1.621094 -1.625 C 1.632812 -1.65625 1.640625 -1.6875 1.640625 -1.722656 C 1.640625 -1.746094 1.628906 -1.765625 1.605469 -1.785156 C 1.582031 -1.800781 1.554688 -1.816406 1.523438 -1.832031 C 1.492188 -1.84375 1.464844 -1.855469 1.433594 -1.863281 C 1.402344 -1.867188 1.378906 -1.875 1.359375 -1.875 L 1.359375 -2.007812 L 2.128906 -2.007812 Z "/>
</g>
<g id="glyph-0-1">
<path d="M 1.644531 0 L 0.273438 0 L 0.273438 -0.144531 C 0.316406 -0.148438 0.378906 -0.152344 0.464844 -0.160156 C 0.550781 -0.171875 0.609375 -0.179688 0.644531 -0.1875 C 0.683594 -0.203125 0.71875 -0.226562 0.738281 -0.253906 C 0.761719 -0.285156 0.773438 -0.332031 0.773438 -0.394531 L 0.773438 -1.820312 L 0.265625 -1.820312 L 0.265625 -1.992188 L 0.378906 -1.992188 C 0.523438 -1.992188 0.65625 -2.019531 0.773438 -2.074219 C 0.886719 -2.128906 0.972656 -2.1875 1.019531 -2.25 L 1.191406 -2.25 C 1.1875 -2.160156 1.183594 -2.058594 1.179688 -1.9375 C 1.175781 -1.820312 1.171875 -1.714844 1.171875 -1.621094 L 1.171875 -0.414062 C 1.171875 -0.367188 1.183594 -0.324219 1.203125 -0.289062 C 1.222656 -0.25 1.253906 -0.222656 1.292969 -0.207031 C 1.328125 -0.191406 1.386719 -0.175781 1.46875 -0.164062 C 1.546875 -0.152344 1.605469 -0.144531 1.644531 -0.144531 Z "/>
</g>
</g>
</defs>
<g fill="rgb(95.686275%, 63.529412%, 38.039216%)" fill-opacity="1">
<use xlink:href="#glyph-0-0" x="30" y="23.820312"/>
<use xlink:href="#glyph-0-1" x="32" y="23.820312"/>
</g>
</svg>
