<?xml version="1.0" encoding="UTF-8"?>
<svg xmlns="http://www.w3.org/2000/svg" xmlns:xlink="http://www.w3.org/1999/xlink" width="1920" height="1080" viewBox="0 0 1920 1080">
<defs>
<g>
<g id="glyph-0-0">
<path d="M 3.53125 -3.191406 C 3.53125 -2.96875 3.488281 -2.773438 3.402344 -2.601562 C 3.316406 -2.433594 3.195312 -2.292969 3.042969 -2.179688 C 2.890625 -2.070312 2.726562 -1.988281 2.546875 -1.9375 C 2.363281 -1.882812 2.171875 -1.859375 1.96875 -1.859375 L 1.496094 -1.859375 L 1.496094 -0.574219 C 1.496094 -0.507812 1.507812 -0.445312 1.527344 -0.390625 C 1.550781 -0.339844 1.597656 -0.300781 1.671875 -0.273438 C 1.707031 -0.257812 1.769531 -0.246094 1.859375 -0.234375 C 1.949219 -0.222656 2.035156 -0.214844 2.109375 -0.210938 L 2.109375 0 L 0.292969 0 L 0.292969 -0.210938 C 0.339844 -0.214844 0.410156 -0.222656 0.5 -0.234375 C 0.589844 -0.242188 0.652344 -0.253906 0.6875 -0.273438 C 0.75 -0.296875 0.792969 -0.335938 0.820312 -0.386719 C 0.847656 -0.433594 0.859375 -0.5 0.859375 -0.574219 L 0.859375 -3.632812 C 0.859375 -3.699219 0.847656 -3.761719 0.828125 -3.820312 C 0.808594 -3.875 0.761719 -3.917969 0.6875 -3.945312 C 0.613281 -3.96875 0.539062 -3.988281 0.464844 -4 C 0.390625 -4.011719 0.324219 -4.019531 0.273438 -4.023438 L 0.273438 -4.234375 L 2.203125 -4.234375 C 2.597656 -4.234375 2.917969 -4.140625 3.164062 -3.949219 C 3.410156 -3.757812 3.53125 -3.507812 3.53125 -3.191406 M 2.625 -2.46875 C 2.691406 -2.5625 2.738281 -2.660156 2.761719 -2.765625 C 2.78125 -2.867188 2.792969 -2.957031 2.792969 -3.039062 C 2.792969 -3.152344 2.78125 -3.269531 2.753906 -3.386719 C 2.726562 -3.503906 2.679688 -3.605469 2.613281 -3.695312 C 2.542969 -3.789062 2.453125 -3.859375 2.339844 -3.910156 C 2.226562 -3.964844 2.085938 -3.988281 1.914062 -3.988281 L 1.496094 -3.988281 L 1.496094 -2.117188 L 1.800781 -2.117188 C 2.015625 -2.117188 2.1875 -2.152344 2.324219 -2.21875 C 2.457031 -2.285156 2.558594 -2.367188 2.625 -2.46875 Z "/>
</g>
<g id="glyph-0-1">
<path d="M 3.207031 -1.375 C 3.207031 -1.167969 3.171875 -0.972656 3.09375 -0.792969 C 3.019531 -0.613281 2.921875 -0.457031 2.796875 -0.332031 C 2.652344 -0.1875 2.488281 -0.078125 2.3125 -0.0078125 C 2.136719 0.0625 1.953125 0.09375 1.761719 0.09375 C 1.542969 0.09375 1.34375 0.0546875 1.164062 -0.0273438 C 0.984375 -0.109375 0.832031 -0.222656 0.707031 -0.371094 C 0.578125 -0.523438 0.480469 -0.707031 0.410156 -0.925781 C 0.34375 -1.144531 0.308594 -1.390625 0.308594 -1.664062 C 0.308594 -2.375 0.519531 -2.972656 0.941406 -3.457031 C 1.363281 -3.945312 1.929688 -4.238281 2.640625 -4.335938 L 2.695312 -4.066406 L 2.425781 -4.019531 C 1.992188 -3.878906 1.660156 -3.664062 1.425781 -3.367188 C 1.1875 -3.074219 1.035156 -2.71875 0.964844 -2.296875 C 1.136719 -2.445312 1.308594 -2.550781 1.472656 -2.613281 C 1.640625 -2.675781 1.816406 -2.707031 2.003906 -2.707031 C 2.335938 -2.707031 2.617188 -2.578125 2.855469 -2.324219 C 3.089844 -2.070312 3.207031 -1.753906 3.207031 -1.375 M 2.558594 -1.296875 C 2.558594 -1.617188 2.484375 -1.875 2.335938 -2.070312 C 2.191406 -2.265625 1.992188 -2.363281 1.742188 -2.363281 C 1.59375 -2.363281 1.453125 -2.335938 1.328125 -2.28125 C 1.199219 -2.222656 1.074219 -2.128906 0.953125 -2 C 0.953125 -1.976562 0.949219 -1.921875 0.945312 -1.832031 C 0.941406 -1.746094 0.941406 -1.679688 0.941406 -1.628906 C 0.941406 -1.164062 1.015625 -0.800781 1.167969 -0.535156 C 1.320312 -0.273438 1.519531 -0.140625 1.769531 -0.140625 C 2.007812 -0.140625 2.195312 -0.242188 2.34375 -0.449219 C 2.488281 -0.65625 2.558594 -0.9375 2.558594 -1.296875 Z "/>
</g>
</g>
</defs>
<g fill="rgb(100%, 100%, 100%)" fill-opacity="1">
<use xlink:href="#glyph-0-0" x="30" y="25.603516"/>
<use xlink:href="#glyph-0-1" x="34" y="25.603516"/>
</g>
</svg>
