<?xml version="1.0" encoding="UTF-8"?>
<svg xmlns="http://www.w3.org/2000/svg" xmlns:xlink="http://www.w3.org/1999/xlink" width="854" height="480" viewBox="0 0 854 480">
<defs>
<g>
<g id="glyph-0-0">
<path d="M 1.898438 -1.328125 L 0.367188 -1.328125 L 0.367188 -1.523438 C 0.421875 -1.523438 0.496094 -1.527344 0.59375 -1.535156 C 0.691406 -1.539062 0.757812 -1.550781 0.792969 -1.5625 C 0.832031 -1.574219 0.859375 -1.597656 0.882812 -1.625 C 0.90625 -1.652344 0.917969 -1.691406 0.917969 -1.738281 L 0.917969 -3.449219 L 0.355469 -3.449219 L 0.355469 -3.664062 L 0.523438 -3.664062 C 0.664062 -3.664062 0.796875 -3.6875 0.917969 -3.738281 C 1.042969 -3.792969 1.136719 -3.851562 1.195312 -3.921875 L 1.394531 -3.921875 C 1.390625 -3.839844 1.386719 -3.730469 1.382812 -3.597656 C 1.378906 -3.460938 1.375 -3.355469 1.375 -3.277344 L 1.375 -1.761719 C 1.375 -1.71875 1.386719 -1.683594 1.40625 -1.648438 C 1.425781 -1.617188 1.457031 -1.59375 1.492188 -1.578125 C 1.527344 -1.5625 1.589844 -1.550781 1.679688 -1.539062 C 1.765625 -1.527344 1.839844 -1.523438 1.898438 -1.523438 L 1.898438 -1.328125 M 3.898438 -3.847656 L 1.894531 0 L 1.527344 0 L 3.527344 -3.847656 L 3.898438 -3.847656 M 5.546875 0 L 3.503906 0 L 3.503906 -0.300781 C 3.574219 -0.417969 3.679688 -0.535156 3.824219 -0.648438 C 3.96875 -0.761719 4.144531 -0.882812 4.347656 -1.011719 C 4.410156 -1.050781 4.480469 -1.105469 4.558594 -1.171875 C 4.636719 -1.238281 4.695312 -1.296875 4.738281 -1.355469 C 4.789062 -1.425781 4.832031 -1.5 4.859375 -1.582031 C 4.886719 -1.660156 4.902344 -1.757812 4.902344 -1.878906 C 4.902344 -2.050781 4.859375 -2.183594 4.769531 -2.273438 C 4.679688 -2.363281 4.5625 -2.410156 4.417969 -2.410156 C 4.316406 -2.410156 4.226562 -2.390625 4.15625 -2.355469 C 4.082031 -2.320312 4.027344 -2.28125 3.996094 -2.234375 C 4.007812 -2.1875 4.019531 -2.140625 4.03125 -2.085938 C 4.046875 -2.03125 4.054688 -1.972656 4.054688 -1.914062 C 4.054688 -1.855469 4.027344 -1.808594 3.976562 -1.765625 C 3.929688 -1.722656 3.855469 -1.703125 3.761719 -1.703125 C 3.671875 -1.703125 3.609375 -1.730469 3.574219 -1.789062 C 3.539062 -1.847656 3.519531 -1.910156 3.519531 -1.980469 C 3.519531 -2.144531 3.613281 -2.292969 3.800781 -2.417969 C 3.992188 -2.546875 4.210938 -2.613281 4.460938 -2.613281 C 4.742188 -2.613281 4.976562 -2.542969 5.15625 -2.40625 C 5.332031 -2.269531 5.421875 -2.089844 5.421875 -1.859375 C 5.421875 -1.722656 5.402344 -1.605469 5.363281 -1.503906 C 5.320312 -1.402344 5.265625 -1.320312 5.199219 -1.246094 C 5.128906 -1.171875 5.050781 -1.109375 4.964844 -1.054688 C 4.875 -1 4.785156 -0.953125 4.691406 -0.90625 C 4.574219 -0.851562 4.433594 -0.773438 4.269531 -0.679688 C 4.101562 -0.585938 3.96875 -0.488281 3.859375 -0.390625 L 5.546875 -0.390625 Z "/>
</g>
</g>
</defs>
<g fill="rgb(95.686275%, 63.529412%, 38.039216%)" fill-opacity="1">
<use xlink:href="#glyph-0-0" x="30" y="25.094727"/>
</g>
</svg>
