<?xml version="1.0" encoding="UTF-8"?>
<svg xmlns="http://www.w3.org/2000/svg" xmlns:xlink="http://www.w3.org/1999/xlink" width="1920" height="1080" viewBox="0 0 1920 1080">
<defs>
<g>
<g id="glyph-0-0">
</g>
<g id="glyph-0-1">
<path d="M 3.0625 -1.707031 L 0.453125 -1.707031 L 0.453125 -2.105469 L 3.0625 -2.105469 L 3.0625 -1.707031 M 3.0625 -0.695312 L 0.453125 -0.695312 L 0.453125 -1.097656 L 3.0625 -1.097656 Z "/>
</g>
<g id="glyph-0-2">
<path d="M 2.890625 -2.273438 C 3.015625 -2.144531 3.105469 -1.996094 3.164062 -1.828125 C 3.226562 -1.664062 3.253906 -1.488281 3.253906 -1.3125 C 3.253906 -1.097656 3.21875 -0.90625 3.144531 -0.734375 C 3.070312 -0.5625 2.96875 -0.417969 2.839844 -0.296875 C 2.703125 -0.175781 2.546875 -0.078125 2.367188 -0.015625 C 2.1875 0.0507812 1.984375 0.0820312 1.75 0.0820312 C 1.503906 0.0820312 1.289062 0.0429688 1.101562 -0.03125 C 0.910156 -0.109375 0.753906 -0.210938 0.628906 -0.335938 C 0.507812 -0.457031 0.414062 -0.605469 0.347656 -0.773438 C 0.285156 -0.9375 0.25 -1.117188 0.25 -1.3125 C 0.25 -1.5 0.28125 -1.679688 0.34375 -1.839844 C 0.402344 -2.003906 0.5 -2.152344 0.625 -2.28125 C 0.75 -2.410156 0.90625 -2.515625 1.097656 -2.589844 C 1.285156 -2.667969 1.503906 -2.707031 1.753906 -2.707031 C 2.007812 -2.707031 2.230469 -2.667969 2.421875 -2.585938 C 2.613281 -2.507812 2.769531 -2.402344 2.890625 -2.273438 M 2.203125 -0.457031 C 2.25 -0.566406 2.28125 -0.6875 2.304688 -0.820312 C 2.324219 -0.957031 2.335938 -1.117188 2.335938 -1.3125 C 2.335938 -1.484375 2.324219 -1.640625 2.304688 -1.777344 C 2.289062 -1.914062 2.253906 -2.039062 2.210938 -2.144531 C 2.167969 -2.257812 2.105469 -2.34375 2.03125 -2.402344 C 1.957031 -2.460938 1.863281 -2.492188 1.753906 -2.492188 C 1.644531 -2.492188 1.550781 -2.464844 1.476562 -2.402344 C 1.402344 -2.34375 1.339844 -2.261719 1.292969 -2.152344 C 1.25 -2.050781 1.21875 -1.929688 1.203125 -1.785156 C 1.179688 -1.640625 1.171875 -1.484375 1.171875 -1.3125 C 1.171875 -1.128906 1.179688 -0.976562 1.199219 -0.851562 C 1.214844 -0.722656 1.246094 -0.601562 1.292969 -0.484375 C 1.332031 -0.378906 1.390625 -0.292969 1.46875 -0.226562 C 1.542969 -0.160156 1.636719 -0.128906 1.75 -0.128906 C 1.855469 -0.128906 1.945312 -0.160156 2.023438 -0.21875 C 2.097656 -0.277344 2.15625 -0.355469 2.203125 -0.457031 Z "/>
</g>
<g id="glyph-0-3">
<path d="M 1.304688 -0.40625 C 1.304688 -0.277344 1.257812 -0.164062 1.160156 -0.0703125 C 1.066406 0.0234375 0.953125 0.0703125 0.824219 0.0703125 C 0.691406 0.0703125 0.578125 0.0234375 0.480469 -0.0703125 C 0.386719 -0.164062 0.339844 -0.273438 0.339844 -0.40625 C 0.339844 -0.535156 0.386719 -0.648438 0.480469 -0.742188 C 0.578125 -0.839844 0.691406 -0.886719 0.824219 -0.886719 C 0.953125 -0.886719 1.066406 -0.839844 1.160156 -0.742188 C 1.257812 -0.644531 1.304688 -0.535156 1.304688 -0.40625 Z "/>
</g>
<g id="glyph-0-4">
<path d="M 3.078125 -0.0234375 L 2.554688 -0.0234375 L 2.554688 0.902344 L 1.734375 0.902344 L 1.734375 -0.0234375 L 0.121094 -0.0234375 L 0.121094 -0.472656 L 1.871094 -2.691406 L 2.554688 -2.691406 L 2.554688 -0.539062 L 3.078125 -0.539062 L 3.078125 -0.0234375 M 1.734375 -0.539062 L 1.734375 -2.109375 L 0.496094 -0.539062 Z "/>
</g>
<g id="glyph-0-5">
<path d="M 2.308594 0 L 0.296875 0 L 0.296875 -0.1875 C 0.34375 -0.1875 0.421875 -0.195312 0.527344 -0.210938 C 0.636719 -0.222656 0.707031 -0.234375 0.746094 -0.25 C 0.796875 -0.265625 0.835938 -0.292969 0.863281 -0.332031 C 0.890625 -0.371094 0.902344 -0.425781 0.902344 -0.492188 L 0.902344 -2.039062 L 0.285156 -2.039062 L 0.285156 -2.273438 L 0.421875 -2.273438 C 0.5625 -2.273438 0.683594 -2.289062 0.789062 -2.320312 C 0.890625 -2.351562 0.976562 -2.386719 1.046875 -2.429688 C 1.113281 -2.476562 1.171875 -2.523438 1.21875 -2.574219 C 1.261719 -2.621094 1.296875 -2.664062 1.324219 -2.703125 L 1.753906 -2.703125 C 1.75 -2.597656 1.742188 -2.472656 1.738281 -2.332031 C 1.734375 -2.191406 1.730469 -2.0625 1.730469 -1.949219 L 1.730469 -0.519531 C 1.730469 -0.460938 1.742188 -0.410156 1.769531 -0.367188 C 1.792969 -0.324219 1.832031 -0.292969 1.878906 -0.269531 C 1.917969 -0.25 1.992188 -0.230469 2.089844 -0.214844 C 2.1875 -0.199219 2.261719 -0.1875 2.308594 -0.1875 Z "/>
</g>
</g>
</defs>
<g fill="rgb(17.647059%, 77.647059%, 32.54902%)" fill-opacity="1">
<use xlink:href="#glyph-0-0" x="30" y="24.584961"/>
<use xlink:href="#glyph-0-0" x="31" y="24.584961"/>
<use xlink:href="#glyph-0-0" x="32" y="24.584961"/>
<use xlink:href="#glyph-0-0" x="33" y="24.584961"/>
<use xlink:href="#glyph-0-0" x="34" y="24.584961"/>
<use xlink:href="#glyph-0-0" x="35" y="24.584961"/>
<use xlink:href="#glyph-0-0" x="36" y="24.584961"/>
<use xlink:href="#glyph-0-0" x="37" y="24.584961"/>
<use xlink:href="#glyph-0-0" x="38" y="24.584961"/>
<use xlink:href="#glyph-0-0" x="39" y="24.584961"/>
<use xlink:href="#glyph-0-0" x="40" y="24.584961"/>
<use xlink:href="#glyph-0-0" x="41" y="24.584961"/>
<use xlink:href="#glyph-0-1" x="42" y="24.584961"/>
<use xlink:href="#glyph-0-0" x="46" y="24.584961"/>
<use xlink:href="#glyph-0-0" x="47" y="24.584961"/>
<use xlink:href="#glyph-0-2" x="48" y="24.584961"/>
<use xlink:href="#glyph-0-3" x="52" y="24.584961"/>
<use xlink:href="#glyph-0-4" x="54" y="24.584961"/>
<use xlink:href="#glyph-0-5" x="57" y="24.584961"/>
<use xlink:href="#glyph-0-2" x="59" y="24.584961"/>
</g>
</svg>
