<?xml version="1.0" encoding="UTF-8"?>
<svg xmlns="http://www.w3.org/2000/svg" xmlns:xlink="http://www.w3.org/1999/xlink" width="1920" height="1080" viewBox="0 0 1920 1080">
<defs>
<g>
<g id="glyph-0-0">
<path d="M 2.554688 -2.257812 C 2.480469 -2.246094 2.410156 -2.21875 2.34375 -2.179688 C 2.277344 -2.140625 2.222656 -2.070312 2.175781 -1.96875 C 2.078125 -1.75 1.980469 -1.523438 1.878906 -1.285156 C 1.773438 -1.046875 1.667969 -0.800781 1.558594 -0.539062 C 1.523438 -0.464844 1.492188 -0.375 1.453125 -0.273438 C 1.417969 -0.171875 1.382812 -0.0742188 1.351562 0.0234375 L 1.164062 0.0234375 C 1.007812 -0.359375 0.863281 -0.710938 0.734375 -1.023438 C 0.605469 -1.339844 0.46875 -1.660156 0.328125 -1.992188 C 0.296875 -2.066406 0.246094 -2.125 0.171875 -2.167969 C 0.101562 -2.207031 0.0273438 -2.234375 -0.046875 -2.246094 L -0.046875 -2.40625 L 1.066406 -2.40625 L 1.066406 -2.234375 C 1.019531 -2.234375 0.957031 -2.222656 0.882812 -2.207031 C 0.8125 -2.1875 0.773438 -2.160156 0.773438 -2.128906 C 0.773438 -2.125 0.777344 -2.113281 0.785156 -2.089844 C 0.796875 -2.070312 0.804688 -2.046875 0.8125 -2.023438 C 0.878906 -1.855469 0.972656 -1.625 1.09375 -1.328125 C 1.214844 -1.027344 1.316406 -0.789062 1.390625 -0.605469 C 1.449219 -0.746094 1.523438 -0.921875 1.613281 -1.128906 C 1.699219 -1.335938 1.796875 -1.570312 1.898438 -1.828125 C 1.914062 -1.871094 1.929688 -1.910156 1.945312 -1.949219 C 1.960938 -1.988281 1.96875 -2.027344 1.96875 -2.066406 C 1.96875 -2.09375 1.953125 -2.117188 1.925781 -2.140625 C 1.898438 -2.160156 1.867188 -2.179688 1.832031 -2.199219 C 1.792969 -2.214844 1.757812 -2.226562 1.71875 -2.234375 C 1.683594 -2.242188 1.65625 -2.246094 1.632812 -2.25 L 1.632812 -2.40625 L 2.554688 -2.40625 Z "/>
</g>
<g id="glyph-0-1">
<path d="M 2.152344 -2.683594 C 2.152344 -2.621094 2.136719 -2.578125 2.101562 -2.550781 C 2.066406 -2.523438 2.023438 -2.507812 1.96875 -2.507812 C 1.933594 -2.507812 1.847656 -2.527344 1.710938 -2.5625 C 1.578125 -2.597656 1.425781 -2.625 1.253906 -2.644531 C 1.328125 -2.542969 1.398438 -2.457031 1.460938 -2.390625 C 1.523438 -2.324219 1.578125 -2.265625 1.617188 -2.222656 C 1.664062 -2.175781 1.695312 -2.132812 1.722656 -2.097656 C 1.746094 -2.0625 1.757812 -2.023438 1.757812 -1.984375 C 1.757812 -1.9375 1.738281 -1.898438 1.699219 -1.867188 C 1.660156 -1.835938 1.617188 -1.820312 1.574219 -1.820312 C 1.546875 -1.820312 1.519531 -1.828125 1.492188 -1.84375 C 1.464844 -1.863281 1.445312 -1.886719 1.425781 -1.917969 C 1.398438 -1.964844 1.375 -2.039062 1.347656 -2.144531 C 1.324219 -2.246094 1.269531 -2.402344 1.179688 -2.601562 C 1.101562 -2.410156 1.050781 -2.253906 1.019531 -2.140625 C 0.988281 -2.027344 0.960938 -1.953125 0.9375 -1.917969 C 0.917969 -1.882812 0.894531 -1.859375 0.871094 -1.84375 C 0.851562 -1.828125 0.824219 -1.820312 0.789062 -1.820312 C 0.742188 -1.820312 0.699219 -1.835938 0.664062 -1.867188 C 0.625 -1.894531 0.605469 -1.933594 0.605469 -1.984375 C 0.605469 -2.023438 0.617188 -2.058594 0.640625 -2.09375 C 0.664062 -2.125 0.699219 -2.167969 0.746094 -2.222656 C 0.785156 -2.265625 0.839844 -2.320312 0.90625 -2.394531 C 0.972656 -2.46875 1.042969 -2.550781 1.109375 -2.644531 C 0.949219 -2.628906 0.800781 -2.601562 0.664062 -2.566406 C 0.523438 -2.527344 0.433594 -2.507812 0.394531 -2.507812 C 0.339844 -2.507812 0.296875 -2.523438 0.261719 -2.550781 C 0.226562 -2.578125 0.210938 -2.621094 0.210938 -2.683594 C 0.210938 -2.738281 0.226562 -2.78125 0.261719 -2.8125 C 0.296875 -2.839844 0.339844 -2.855469 0.394531 -2.855469 C 0.441406 -2.855469 0.527344 -2.839844 0.652344 -2.804688 C 0.773438 -2.769531 0.925781 -2.746094 1.109375 -2.726562 C 1.046875 -2.8125 0.976562 -2.894531 0.90625 -2.972656 C 0.839844 -3.050781 0.785156 -3.109375 0.746094 -3.148438 C 0.699219 -3.199219 0.664062 -3.238281 0.640625 -3.273438 C 0.617188 -3.308594 0.605469 -3.347656 0.605469 -3.390625 C 0.605469 -3.433594 0.625 -3.472656 0.664062 -3.503906 C 0.703125 -3.535156 0.746094 -3.550781 0.789062 -3.550781 C 0.816406 -3.550781 0.84375 -3.542969 0.871094 -3.527344 C 0.894531 -3.511719 0.917969 -3.488281 0.9375 -3.453125 C 0.960938 -3.414062 0.992188 -3.328125 1.027344 -3.191406 C 1.066406 -3.054688 1.117188 -2.914062 1.179688 -2.769531 C 1.253906 -2.933594 1.308594 -3.078125 1.339844 -3.203125 C 1.375 -3.328125 1.402344 -3.414062 1.425781 -3.453125 C 1.445312 -3.484375 1.464844 -3.507812 1.492188 -3.527344 C 1.515625 -3.542969 1.542969 -3.550781 1.574219 -3.550781 C 1.621094 -3.550781 1.664062 -3.535156 1.699219 -3.507812 C 1.738281 -3.476562 1.757812 -3.4375 1.757812 -3.390625 C 1.757812 -3.320312 1.710938 -3.242188 1.621094 -3.15625 C 1.53125 -3.066406 1.410156 -2.921875 1.253906 -2.726562 C 1.429688 -2.746094 1.582031 -2.773438 1.710938 -2.804688 C 1.84375 -2.839844 1.929688 -2.855469 1.96875 -2.855469 C 2.023438 -2.855469 2.066406 -2.84375 2.101562 -2.8125 C 2.136719 -2.78125 2.152344 -2.738281 2.152344 -2.683594 Z "/>
</g>
<g id="glyph-0-2">
<path d="M 1.710938 0.757812 L 0.410156 0.757812 L 0.410156 -3.707031 L 1.710938 -3.707031 L 1.710938 -3.484375 L 0.84375 -3.484375 L 0.84375 0.53125 L 1.710938 0.53125 Z "/>
</g>
<g id="glyph-0-3">
<path d="M 2.890625 -2.609375 C 2.890625 -2.429688 2.855469 -2.269531 2.785156 -2.128906 C 2.714844 -1.992188 2.617188 -1.875 2.492188 -1.785156 C 2.367188 -1.695312 2.230469 -1.625 2.082031 -1.585938 C 1.933594 -1.542969 1.777344 -1.519531 1.609375 -1.519531 L 1.222656 -1.519531 L 1.222656 -0.472656 C 1.222656 -0.414062 1.234375 -0.363281 1.25 -0.320312 C 1.269531 -0.277344 1.308594 -0.246094 1.367188 -0.222656 C 1.398438 -0.210938 1.449219 -0.199219 1.523438 -0.191406 C 1.597656 -0.179688 1.664062 -0.175781 1.726562 -0.171875 L 1.726562 0 L 0.238281 0 L 0.238281 -0.171875 C 0.277344 -0.175781 0.335938 -0.183594 0.410156 -0.191406 C 0.484375 -0.199219 0.535156 -0.210938 0.5625 -0.222656 C 0.613281 -0.242188 0.648438 -0.273438 0.671875 -0.316406 C 0.691406 -0.355469 0.703125 -0.40625 0.703125 -0.472656 L 0.703125 -2.972656 C 0.703125 -3.027344 0.695312 -3.078125 0.679688 -3.125 C 0.664062 -3.171875 0.625 -3.203125 0.5625 -3.226562 C 0.503906 -3.25 0.441406 -3.265625 0.378906 -3.273438 C 0.320312 -3.28125 0.265625 -3.289062 0.222656 -3.289062 L 0.222656 -3.464844 L 1.804688 -3.464844 C 2.125 -3.464844 2.386719 -3.386719 2.589844 -3.230469 C 2.789062 -3.074219 2.890625 -2.867188 2.890625 -2.609375 M 2.148438 -2.019531 C 2.203125 -2.097656 2.242188 -2.179688 2.257812 -2.261719 C 2.277344 -2.347656 2.285156 -2.421875 2.285156 -2.488281 C 2.285156 -2.582031 2.273438 -2.675781 2.253906 -2.769531 C 2.230469 -2.867188 2.191406 -2.949219 2.140625 -3.023438 C 2.082031 -3.097656 2.007812 -3.160156 1.914062 -3.199219 C 1.820312 -3.242188 1.707031 -3.265625 1.566406 -3.265625 L 1.222656 -3.265625 L 1.222656 -1.734375 L 1.472656 -1.734375 C 1.648438 -1.734375 1.789062 -1.761719 1.902344 -1.816406 C 2.011719 -1.871094 2.09375 -1.9375 2.148438 -2.019531 Z "/>
</g>
<g id="glyph-0-4">
<path d="M 2.625 -1.125 C 2.625 -0.957031 2.59375 -0.796875 2.53125 -0.648438 C 2.472656 -0.5 2.390625 -0.375 2.289062 -0.269531 C 2.167969 -0.152344 2.039062 -0.0625 1.894531 -0.0078125 C 1.75 0.0507812 1.597656 0.078125 1.441406 0.078125 C 1.261719 0.078125 1.097656 0.0429688 0.953125 -0.0234375 C 0.804688 -0.0898438 0.679688 -0.183594 0.578125 -0.304688 C 0.472656 -0.429688 0.394531 -0.578125 0.335938 -0.757812 C 0.28125 -0.9375 0.25 -1.136719 0.25 -1.363281 C 0.25 -1.941406 0.425781 -2.429688 0.769531 -2.828125 C 1.117188 -3.230469 1.578125 -3.46875 2.160156 -3.546875 L 2.203125 -3.328125 L 1.984375 -3.289062 C 1.632812 -3.175781 1.359375 -2.996094 1.164062 -2.757812 C 0.972656 -2.515625 0.847656 -2.222656 0.789062 -1.878906 C 0.929688 -2.003906 1.070312 -2.089844 1.207031 -2.140625 C 1.34375 -2.1875 1.488281 -2.214844 1.636719 -2.214844 C 1.910156 -2.214844 2.140625 -2.109375 2.335938 -1.902344 C 2.527344 -1.695312 2.625 -1.433594 2.625 -1.125 M 2.09375 -1.058594 C 2.09375 -1.324219 2.035156 -1.535156 1.914062 -1.695312 C 1.792969 -1.855469 1.628906 -1.933594 1.425781 -1.933594 C 1.304688 -1.933594 1.191406 -1.910156 1.085938 -1.867188 C 0.980469 -1.820312 0.878906 -1.742188 0.78125 -1.636719 C 0.78125 -1.617188 0.777344 -1.570312 0.773438 -1.5 C 0.769531 -1.429688 0.769531 -1.375 0.769531 -1.332031 C 0.769531 -0.953125 0.832031 -0.652344 0.957031 -0.4375 C 1.082031 -0.222656 1.246094 -0.113281 1.449219 -0.113281 C 1.640625 -0.113281 1.796875 -0.199219 1.917969 -0.367188 C 2.035156 -0.535156 2.09375 -0.765625 2.09375 -1.058594 Z "/>
</g>
<g id="glyph-0-5">
<path d="M 1.464844 0.757812 L 0.164062 0.757812 L 0.164062 0.53125 L 1.03125 0.53125 L 1.03125 -3.484375 L 0.164062 -3.484375 L 0.164062 -3.707031 L 1.464844 -3.707031 Z "/>
</g>
<g id="glyph-0-6">
</g>
<g id="glyph-0-7">
<path d="M 2.839844 -1.667969 L 0.375 -1.667969 L 0.375 -1.972656 L 2.839844 -1.972656 L 2.839844 -1.667969 M 2.839844 -0.757812 L 0.375 -0.757812 L 0.375 -1.0625 L 2.839844 -1.0625 Z "/>
</g>
<g id="glyph-0-8">
<path d="M 2.507812 -2.28125 C 2.613281 -2.15625 2.6875 -2.007812 2.742188 -1.839844 C 2.792969 -1.671875 2.816406 -1.496094 2.816406 -1.3125 C 2.816406 -1.089844 2.785156 -0.890625 2.722656 -0.714844 C 2.660156 -0.542969 2.570312 -0.394531 2.460938 -0.28125 C 2.347656 -0.160156 2.210938 -0.0742188 2.054688 -0.0117188 C 1.898438 0.046875 1.726562 0.078125 1.53125 0.078125 C 1.324219 0.078125 1.136719 0.0429688 0.972656 -0.0273438 C 0.808594 -0.0976562 0.671875 -0.191406 0.570312 -0.316406 C 0.464844 -0.441406 0.382812 -0.589844 0.332031 -0.761719 C 0.277344 -0.929688 0.25 -1.113281 0.25 -1.3125 C 0.25 -1.503906 0.277344 -1.683594 0.328125 -1.84375 C 0.378906 -2.007812 0.460938 -2.15625 0.570312 -2.289062 C 0.671875 -2.414062 0.808594 -2.515625 0.972656 -2.585938 C 1.136719 -2.660156 1.324219 -2.699219 1.535156 -2.699219 C 1.757812 -2.699219 1.949219 -2.660156 2.109375 -2.585938 C 2.269531 -2.511719 2.402344 -2.410156 2.507812 -2.28125 M 2.277344 -1.3125 C 2.277344 -1.699219 2.210938 -2 2.078125 -2.210938 C 1.945312 -2.425781 1.765625 -2.53125 1.539062 -2.53125 C 1.308594 -2.53125 1.125 -2.425781 0.992188 -2.210938 C 0.859375 -2 0.789062 -1.699219 0.789062 -1.3125 C 0.789062 -0.941406 0.855469 -0.648438 0.984375 -0.421875 C 1.109375 -0.199219 1.292969 -0.0859375 1.53125 -0.0859375 C 1.773438 -0.0859375 1.957031 -0.199219 2.085938 -0.421875 C 2.214844 -0.648438 2.277344 -0.941406 2.277344 -1.3125 Z "/>
</g>
<g id="glyph-0-9">
<path d="M 1.011719 -0.28125 C 1.011719 -0.191406 0.980469 -0.113281 0.914062 -0.046875 C 0.847656 0.015625 0.769531 0.046875 0.679688 0.046875 C 0.585938 0.046875 0.507812 0.015625 0.441406 -0.046875 C 0.378906 -0.113281 0.34375 -0.191406 0.34375 -0.28125 C 0.34375 -0.371094 0.378906 -0.449219 0.441406 -0.515625 C 0.507812 -0.582031 0.585938 -0.613281 0.679688 -0.617188 C 0.769531 -0.613281 0.847656 -0.582031 0.914062 -0.515625 C 0.980469 -0.449219 1.011719 -0.371094 1.011719 -0.28125 Z "/>
</g>
<g id="glyph-0-10">
<path d="M 2.648438 -0.21875 L 2.152344 -0.21875 L 2.152344 0.890625 L 1.683594 0.890625 L 1.683594 -0.21875 L 0.121094 -0.21875 L 0.121094 -0.59375 L 1.832031 -2.683594 L 2.152344 -2.683594 L 2.152344 -0.539062 L 2.648438 -0.539062 L 2.648438 -0.21875 M 1.683594 -0.539062 L 1.683594 -2.140625 L 0.359375 -0.539062 Z "/>
</g>
<g id="glyph-0-11">
<path d="M 1.976562 0 L 0.328125 0 L 0.328125 -0.171875 C 0.378906 -0.175781 0.453125 -0.183594 0.558594 -0.195312 C 0.660156 -0.203125 0.734375 -0.214844 0.773438 -0.226562 C 0.820312 -0.242188 0.859375 -0.269531 0.886719 -0.304688 C 0.914062 -0.34375 0.929688 -0.398438 0.929688 -0.472656 L 0.929688 -2.183594 L 0.320312 -2.183594 L 0.320312 -2.390625 L 0.453125 -2.390625 C 0.628906 -2.390625 0.789062 -2.421875 0.925781 -2.488281 C 1.066406 -2.554688 1.164062 -2.621094 1.226562 -2.699219 L 1.429688 -2.699219 C 1.421875 -2.59375 1.417969 -2.46875 1.414062 -2.328125 C 1.410156 -2.183594 1.40625 -2.058594 1.40625 -1.945312 L 1.40625 -0.5 C 1.40625 -0.441406 1.417969 -0.390625 1.445312 -0.34375 C 1.46875 -0.300781 1.503906 -0.269531 1.554688 -0.246094 C 1.59375 -0.230469 1.664062 -0.210938 1.761719 -0.199219 C 1.855469 -0.183594 1.929688 -0.175781 1.976562 -0.171875 Z "/>
</g>
<g id="glyph-0-12">
<path d="M 3.589844 -1.382812 C 3.550781 -1.375 3.5 -1.371094 3.433594 -1.359375 C 3.367188 -1.347656 3.316406 -1.332031 3.273438 -1.3125 C 3.226562 -1.289062 3.191406 -1.253906 3.171875 -1.210938 C 3.148438 -1.164062 3.140625 -1.113281 3.140625 -1.050781 L 3.140625 -0.785156 C 3.140625 -0.589844 3.140625 -0.457031 3.144531 -0.386719 C 3.144531 -0.320312 3.148438 -0.261719 3.152344 -0.21875 C 2.933594 -0.121094 2.71875 -0.046875 2.503906 0.00390625 C 2.289062 0.0585938 2.078125 0.0820312 1.871094 0.0820312 C 1.652344 0.0820312 1.4375 0.0429688 1.234375 -0.0429688 C 1.027344 -0.125 0.847656 -0.242188 0.695312 -0.394531 C 0.542969 -0.550781 0.417969 -0.738281 0.328125 -0.960938 C 0.234375 -1.183594 0.191406 -1.429688 0.191406 -1.703125 C 0.191406 -1.964844 0.234375 -2.210938 0.320312 -2.4375 C 0.40625 -2.664062 0.53125 -2.859375 0.691406 -3.023438 C 0.84375 -3.1875 1.03125 -3.3125 1.242188 -3.40625 C 1.457031 -3.496094 1.6875 -3.539062 1.929688 -3.539062 C 2.125 -3.539062 2.296875 -3.515625 2.441406 -3.46875 C 2.585938 -3.421875 2.714844 -3.363281 2.824219 -3.296875 L 2.925781 -3.464844 L 3.121094 -3.464844 L 3.140625 -2.253906 L 2.941406 -2.253906 C 2.90625 -2.386719 2.867188 -2.519531 2.816406 -2.648438 C 2.765625 -2.777344 2.699219 -2.894531 2.621094 -2.996094 C 2.539062 -3.097656 2.441406 -3.179688 2.328125 -3.242188 C 2.210938 -3.300781 2.074219 -3.332031 1.914062 -3.332031 C 1.742188 -3.332031 1.585938 -3.296875 1.449219 -3.226562 C 1.3125 -3.15625 1.191406 -3.050781 1.089844 -2.910156 C 0.992188 -2.773438 0.914062 -2.605469 0.863281 -2.402344 C 0.808594 -2.203125 0.78125 -1.976562 0.78125 -1.726562 C 0.78125 -1.507812 0.808594 -1.300781 0.859375 -1.105469 C 0.914062 -0.910156 0.992188 -0.742188 1.089844 -0.601562 C 1.191406 -0.457031 1.320312 -0.34375 1.46875 -0.257812 C 1.621094 -0.175781 1.792969 -0.132812 1.988281 -0.132812 C 2.128906 -0.132812 2.261719 -0.15625 2.378906 -0.199219 C 2.496094 -0.242188 2.582031 -0.289062 2.628906 -0.339844 C 2.640625 -0.425781 2.648438 -0.507812 2.648438 -0.59375 C 2.652344 -0.683594 2.652344 -0.753906 2.652344 -0.816406 L 2.652344 -1.007812 C 2.652344 -1.074219 2.640625 -1.136719 2.625 -1.1875 C 2.605469 -1.242188 2.566406 -1.28125 2.507812 -1.304688 C 2.453125 -1.328125 2.378906 -1.347656 2.289062 -1.359375 C 2.195312 -1.371094 2.125 -1.378906 2.074219 -1.382812 L 2.074219 -1.558594 L 3.589844 -1.558594 Z "/>
</g>
<g id="glyph-0-13">
<path d="M 1.039062 -1.363281 C 1.039062 -1.273438 1.003906 -1.195312 0.9375 -1.132812 C 0.871094 -1.066406 0.792969 -1.035156 0.703125 -1.035156 C 0.613281 -1.035156 0.535156 -1.066406 0.46875 -1.132812 C 0.402344 -1.195312 0.367188 -1.273438 0.367188 -1.363281 C 0.367188 -1.457031 0.402344 -1.535156 0.46875 -1.601562 C 0.535156 -1.667969 0.613281 -1.699219 0.703125 -1.699219 C 0.792969 -1.699219 0.871094 -1.667969 0.9375 -1.601562 C 1.003906 -1.535156 1.039062 -1.457031 1.039062 -1.363281 Z "/>
</g>
<g id="glyph-0-14">
<path d="M 2.3125 -0.566406 C 2.214844 -0.375 2.078125 -0.222656 1.910156 -0.109375 C 1.738281 0.0078125 1.546875 0.0625 1.324219 0.0625 C 1.132812 0.0625 0.960938 0.0273438 0.816406 -0.0390625 C 0.671875 -0.105469 0.550781 -0.199219 0.457031 -0.316406 C 0.363281 -0.433594 0.292969 -0.570312 0.246094 -0.726562 C 0.199219 -0.882812 0.175781 -1.050781 0.175781 -1.222656 C 0.175781 -1.378906 0.199219 -1.53125 0.25 -1.683594 C 0.300781 -1.832031 0.371094 -1.96875 0.46875 -2.089844 C 0.5625 -2.207031 0.675781 -2.296875 0.8125 -2.371094 C 0.953125 -2.441406 1.105469 -2.476562 1.277344 -2.476562 C 1.453125 -2.476562 1.601562 -2.449219 1.726562 -2.390625 C 1.855469 -2.335938 1.957031 -2.261719 2.035156 -2.164062 C 2.109375 -2.074219 2.164062 -1.96875 2.199219 -1.84375 C 2.238281 -1.71875 2.253906 -1.585938 2.257812 -1.441406 L 2.257812 -1.28125 L 0.660156 -1.28125 C 0.660156 -1.121094 0.675781 -0.976562 0.707031 -0.847656 C 0.738281 -0.71875 0.785156 -0.605469 0.851562 -0.507812 C 0.914062 -0.414062 0.996094 -0.339844 1.097656 -0.285156 C 1.199219 -0.230469 1.324219 -0.203125 1.464844 -0.203125 C 1.609375 -0.203125 1.734375 -0.238281 1.839844 -0.304688 C 1.945312 -0.371094 2.046875 -0.496094 2.144531 -0.671875 L 2.3125 -0.566406 M 1.773438 -1.484375 C 1.773438 -1.574219 1.765625 -1.671875 1.75 -1.777344 C 1.734375 -1.878906 1.710938 -1.96875 1.675781 -2.035156 C 1.640625 -2.113281 1.589844 -2.171875 1.523438 -2.21875 C 1.457031 -2.265625 1.375 -2.289062 1.273438 -2.289062 C 1.101562 -2.289062 0.960938 -2.21875 0.847656 -2.078125 C 0.734375 -1.933594 0.671875 -1.738281 0.660156 -1.484375 Z "/>
</g>
<g id="glyph-0-15">
<path d="M 2.019531 -2.097656 C 2.019531 -2.015625 2 -1.941406 1.957031 -1.875 C 1.917969 -1.8125 1.855469 -1.78125 1.769531 -1.78125 C 1.679688 -1.78125 1.609375 -1.804688 1.5625 -1.851562 C 1.511719 -1.898438 1.488281 -1.949219 1.488281 -2.007812 C 1.488281 -2.042969 1.492188 -2.074219 1.496094 -2.105469 C 1.503906 -2.132812 1.507812 -2.164062 1.515625 -2.191406 C 1.4375 -2.191406 1.347656 -2.160156 1.246094 -2.101562 C 1.140625 -2.039062 1.054688 -1.949219 0.984375 -1.835938 L 0.984375 -0.433594 C 0.984375 -0.378906 0.996094 -0.332031 1.015625 -0.296875 C 1.039062 -0.257812 1.074219 -0.234375 1.121094 -0.214844 C 1.160156 -0.199219 1.214844 -0.1875 1.277344 -0.179688 C 1.34375 -0.171875 1.398438 -0.164062 1.445312 -0.160156 L 1.445312 0 L 0.175781 0 L 0.175781 -0.160156 C 0.214844 -0.164062 0.25 -0.167969 0.292969 -0.171875 C 0.332031 -0.175781 0.367188 -0.179688 0.394531 -0.191406 C 0.441406 -0.203125 0.476562 -0.230469 0.496094 -0.265625 C 0.519531 -0.304688 0.53125 -0.351562 0.53125 -0.410156 L 0.53125 -1.894531 C 0.53125 -1.945312 0.519531 -1.996094 0.496094 -2.042969 C 0.472656 -2.09375 0.4375 -2.132812 0.394531 -2.160156 C 0.363281 -2.179688 0.328125 -2.195312 0.285156 -2.203125 C 0.242188 -2.210938 0.199219 -2.21875 0.148438 -2.222656 L 0.148438 -2.382812 L 0.949219 -2.4375 L 0.984375 -2.402344 L 0.984375 -2.0625 L 0.996094 -2.0625 C 1.097656 -2.195312 1.210938 -2.296875 1.332031 -2.363281 C 1.457031 -2.429688 1.570312 -2.464844 1.671875 -2.464844 C 1.773438 -2.464844 1.859375 -2.433594 1.921875 -2.367188 C 1.988281 -2.300781 2.019531 -2.210938 2.019531 -2.097656 Z "/>
</g>
<g id="glyph-0-16">
<path d="M 2.523438 -1.226562 C 2.523438 -1.058594 2.496094 -0.890625 2.445312 -0.730469 C 2.390625 -0.566406 2.3125 -0.425781 2.214844 -0.3125 C 2.101562 -0.183594 1.972656 -0.0859375 1.824219 -0.0234375 C 1.675781 0.0429688 1.507812 0.0742188 1.324219 0.0742188 C 1.171875 0.0742188 1.027344 0.0429688 0.886719 -0.0117188 C 0.75 -0.0703125 0.625 -0.15625 0.519531 -0.265625 C 0.410156 -0.375 0.328125 -0.507812 0.265625 -0.664062 C 0.203125 -0.824219 0.171875 -1 0.171875 -1.195312 C 0.171875 -1.570312 0.28125 -1.878906 0.5 -2.117188 C 0.71875 -2.355469 1.007812 -2.476562 1.359375 -2.476562 C 1.699219 -2.476562 1.976562 -2.363281 2.195312 -2.136719 C 2.414062 -1.90625 2.523438 -1.605469 2.523438 -1.226562 M 2.019531 -1.222656 C 2.019531 -1.34375 2.007812 -1.472656 1.980469 -1.609375 C 1.957031 -1.746094 1.921875 -1.859375 1.871094 -1.957031 C 1.820312 -2.054688 1.75 -2.136719 1.667969 -2.199219 C 1.582031 -2.257812 1.476562 -2.289062 1.355469 -2.289062 C 1.230469 -2.289062 1.125 -2.257812 1.035156 -2.195312 C 0.945312 -2.136719 0.875 -2.050781 0.816406 -1.945312 C 0.765625 -1.84375 0.730469 -1.730469 0.707031 -1.605469 C 0.6875 -1.476562 0.675781 -1.355469 0.675781 -1.234375 C 0.675781 -1.078125 0.6875 -0.933594 0.714844 -0.800781 C 0.738281 -0.667969 0.78125 -0.550781 0.835938 -0.445312 C 0.890625 -0.34375 0.960938 -0.261719 1.042969 -0.203125 C 1.128906 -0.140625 1.230469 -0.113281 1.355469 -0.113281 C 1.558594 -0.113281 1.722656 -0.210938 1.839844 -0.40625 C 1.960938 -0.605469 2.019531 -0.875 2.019531 -1.222656 Z "/>
</g>
<g id="glyph-0-17">
<path d="M 2.835938 0 L 1.65625 0 L 1.65625 -0.160156 C 1.695312 -0.164062 1.734375 -0.167969 1.78125 -0.171875 C 1.824219 -0.175781 1.863281 -0.179688 1.890625 -0.191406 C 1.9375 -0.203125 1.972656 -0.230469 1.992188 -0.265625 C 2.015625 -0.304688 2.027344 -0.351562 2.027344 -0.410156 L 2.027344 -1.648438 C 2.027344 -1.820312 1.984375 -1.949219 1.90625 -2.042969 C 1.824219 -2.136719 1.726562 -2.183594 1.609375 -2.183594 C 1.523438 -2.183594 1.445312 -2.167969 1.371094 -2.140625 C 1.300781 -2.117188 1.238281 -2.082031 1.183594 -2.042969 C 1.128906 -2.007812 1.085938 -1.964844 1.054688 -1.921875 C 1.023438 -1.878906 1 -1.84375 0.984375 -1.820312 L 0.984375 -0.433594 C 0.984375 -0.378906 0.996094 -0.332031 1.019531 -0.296875 C 1.039062 -0.261719 1.074219 -0.234375 1.121094 -0.214844 C 1.15625 -0.199219 1.191406 -0.1875 1.230469 -0.179688 C 1.273438 -0.171875 1.3125 -0.164062 1.355469 -0.160156 L 1.355469 0 L 0.175781 0 L 0.175781 -0.160156 C 0.214844 -0.164062 0.25 -0.167969 0.292969 -0.171875 C 0.332031 -0.175781 0.367188 -0.179688 0.394531 -0.191406 C 0.441406 -0.203125 0.476562 -0.230469 0.496094 -0.265625 C 0.519531 -0.304688 0.53125 -0.351562 0.53125 -0.410156 L 0.53125 -1.894531 C 0.53125 -1.949219 0.519531 -2 0.496094 -2.046875 C 0.472656 -2.09375 0.4375 -2.132812 0.394531 -2.160156 C 0.363281 -2.179688 0.328125 -2.195312 0.285156 -2.203125 C 0.242188 -2.210938 0.199219 -2.21875 0.148438 -2.222656 L 0.148438 -2.382812 L 0.949219 -2.4375 L 0.984375 -2.402344 L 0.984375 -2.0625 L 0.996094 -2.0625 C 1.035156 -2.101562 1.082031 -2.148438 1.140625 -2.203125 C 1.199219 -2.257812 1.257812 -2.300781 1.308594 -2.335938 C 1.367188 -2.375 1.441406 -2.40625 1.523438 -2.433594 C 1.605469 -2.460938 1.699219 -2.472656 1.804688 -2.472656 C 2.035156 -2.472656 2.207031 -2.402344 2.316406 -2.257812 C 2.429688 -2.113281 2.484375 -1.921875 2.484375 -1.683594 L 2.484375 -0.429688 C 2.484375 -0.371094 2.496094 -0.328125 2.515625 -0.292969 C 2.535156 -0.257812 2.566406 -0.230469 2.613281 -0.210938 C 2.652344 -0.195312 2.6875 -0.183594 2.714844 -0.175781 C 2.746094 -0.167969 2.785156 -0.164062 2.835938 -0.160156 Z "/>
</g>
<g id="glyph-0-18">
<path d="M 1.664062 -1.132812 L 0.207031 -1.132812 L 0.207031 -1.519531 L 1.664062 -1.519531 Z "/>
</g>
<g id="glyph-0-19">
<path d="M 2.925781 -2.597656 L 2.742188 -2.597656 C 2.710938 -2.726562 2.640625 -2.863281 2.53125 -3.011719 C 2.421875 -3.15625 2.320312 -3.238281 2.21875 -3.25 C 2.167969 -3.257812 2.109375 -3.261719 2.039062 -3.265625 C 1.96875 -3.269531 1.890625 -3.273438 1.804688 -3.273438 L 1.222656 -3.273438 L 1.222656 -1.878906 L 1.621094 -1.878906 C 1.742188 -1.878906 1.835938 -1.890625 1.902344 -1.917969 C 1.96875 -1.941406 2.027344 -1.980469 2.074219 -2.035156 C 2.109375 -2.070312 2.136719 -2.125 2.164062 -2.199219 C 2.191406 -2.277344 2.207031 -2.359375 2.21875 -2.445312 L 2.398438 -2.445312 L 2.398438 -1.082031 L 2.21875 -1.082031 C 2.210938 -1.152344 2.195312 -1.234375 2.167969 -1.324219 C 2.136719 -1.417969 2.109375 -1.484375 2.074219 -1.523438 C 2.027344 -1.582031 1.964844 -1.625 1.890625 -1.648438 C 1.816406 -1.667969 1.726562 -1.679688 1.621094 -1.679688 L 1.222656 -1.679688 L 1.222656 -0.488281 C 1.222656 -0.433594 1.234375 -0.386719 1.253906 -0.34375 C 1.277344 -0.300781 1.3125 -0.265625 1.367188 -0.242188 C 1.390625 -0.230469 1.445312 -0.214844 1.527344 -0.199219 C 1.605469 -0.183594 1.667969 -0.175781 1.710938 -0.171875 L 1.710938 0 L 0.210938 0 L 0.210938 -0.171875 C 0.257812 -0.175781 0.324219 -0.183594 0.40625 -0.1875 C 0.488281 -0.195312 0.539062 -0.207031 0.5625 -0.21875 C 0.613281 -0.238281 0.648438 -0.269531 0.671875 -0.3125 C 0.691406 -0.351562 0.703125 -0.402344 0.703125 -0.460938 L 0.703125 -2.960938 C 0.703125 -3.015625 0.695312 -3.0625 0.675781 -3.105469 C 0.660156 -3.144531 0.621094 -3.179688 0.5625 -3.207031 C 0.519531 -3.226562 0.460938 -3.246094 0.386719 -3.261719 C 0.3125 -3.277344 0.253906 -3.289062 0.210938 -3.289062 L 0.210938 -3.464844 L 2.925781 -3.464844 Z "/>
</g>
<g id="glyph-0-20">
<path d="M 2.621094 -1.207031 C 2.621094 -0.84375 2.503906 -0.542969 2.277344 -0.296875 C 2.050781 -0.0507812 1.785156 0.0742188 1.484375 0.0742188 C 1.351562 0.0742188 1.222656 0.0546875 1.09375 0.0117188 C 0.96875 -0.0273438 0.847656 -0.0820312 0.734375 -0.152344 L 0.554688 0.128906 L 0.402344 0.09375 C 0.410156 -0.0234375 0.417969 -0.171875 0.421875 -0.339844 C 0.421875 -0.507812 0.425781 -0.671875 0.425781 -0.832031 L 0.425781 -3.214844 C 0.425781 -3.269531 0.414062 -3.324219 0.386719 -3.382812 C 0.363281 -3.4375 0.328125 -3.476562 0.289062 -3.5 C 0.257812 -3.523438 0.207031 -3.539062 0.136719 -3.546875 C 0.0625 -3.558594 0.00390625 -3.566406 -0.0390625 -3.570312 L -0.0390625 -3.726562 L 0.84375 -3.78125 L 0.878906 -3.742188 L 0.878906 -2.15625 L 0.894531 -2.152344 C 0.996094 -2.257812 1.105469 -2.339844 1.226562 -2.390625 C 1.347656 -2.445312 1.464844 -2.472656 1.578125 -2.472656 C 1.875 -2.472656 2.125 -2.355469 2.320312 -2.121094 C 2.519531 -1.886719 2.621094 -1.582031 2.621094 -1.207031 M 2.109375 -1.1875 C 2.109375 -1.308594 2.097656 -1.433594 2.070312 -1.558594 C 2.042969 -1.683594 2.003906 -1.792969 1.949219 -1.882812 C 1.894531 -1.980469 1.820312 -2.054688 1.730469 -2.113281 C 1.640625 -2.171875 1.535156 -2.203125 1.410156 -2.203125 C 1.292969 -2.203125 1.195312 -2.179688 1.109375 -2.136719 C 1.023438 -2.089844 0.945312 -2.03125 0.878906 -1.953125 L 0.878906 -0.550781 C 0.890625 -0.511719 0.90625 -0.46875 0.9375 -0.414062 C 0.964844 -0.363281 1.003906 -0.3125 1.050781 -0.265625 C 1.101562 -0.21875 1.15625 -0.183594 1.21875 -0.15625 C 1.28125 -0.125 1.355469 -0.113281 1.445312 -0.113281 C 1.644531 -0.113281 1.804688 -0.207031 1.925781 -0.398438 C 2.046875 -0.59375 2.109375 -0.855469 2.109375 -1.1875 Z "/>
</g>
<g id="glyph-0-21">
<path d="M 1.34375 0 L 0.179688 0 L 0.179688 -0.160156 C 0.21875 -0.164062 0.257812 -0.167969 0.296875 -0.171875 C 0.335938 -0.175781 0.371094 -0.179688 0.398438 -0.191406 C 0.445312 -0.203125 0.480469 -0.230469 0.5 -0.265625 C 0.523438 -0.304688 0.535156 -0.351562 0.535156 -0.410156 L 0.535156 -1.894531 C 0.535156 -1.945312 0.523438 -1.996094 0.5 -2.039062 C 0.476562 -2.082031 0.441406 -2.117188 0.398438 -2.144531 C 0.371094 -2.164062 0.324219 -2.183594 0.265625 -2.195312 C 0.207031 -2.210938 0.152344 -2.21875 0.105469 -2.222656 L 0.105469 -2.382812 L 0.953125 -2.4375 L 0.988281 -2.402344 L 0.988281 -0.4375 C 0.988281 -0.382812 1 -0.335938 1.023438 -0.296875 C 1.042969 -0.261719 1.078125 -0.234375 1.125 -0.214844 C 1.160156 -0.199219 1.195312 -0.1875 1.230469 -0.179688 C 1.261719 -0.171875 1.300781 -0.164062 1.34375 -0.160156 L 1.34375 0 M 1.039062 -3.386719 C 1.039062 -3.292969 1.007812 -3.210938 0.945312 -3.144531 C 0.886719 -3.074219 0.808594 -3.039062 0.71875 -3.039062 C 0.636719 -3.039062 0.566406 -3.074219 0.503906 -3.136719 C 0.441406 -3.203125 0.414062 -3.28125 0.414062 -3.363281 C 0.414062 -3.453125 0.441406 -3.53125 0.503906 -3.597656 C 0.566406 -3.664062 0.636719 -3.699219 0.71875 -3.699219 C 0.8125 -3.699219 0.890625 -3.667969 0.949219 -3.605469 C 1.007812 -3.542969 1.039062 -3.46875 1.039062 -3.386719 Z "/>
</g>
<g id="glyph-0-22">
<path d="M 2.757812 -0.0429688 L 1.96875 0.0078125 L 1.933594 -0.0234375 L 1.933594 -0.328125 L 1.917969 -0.328125 C 1.878906 -0.289062 1.835938 -0.246094 1.789062 -0.199219 C 1.738281 -0.152344 1.683594 -0.109375 1.621094 -0.0742188 C 1.546875 -0.03125 1.476562 0.00390625 1.40625 0.0273438 C 1.339844 0.0507812 1.242188 0.0625 1.117188 0.0625 C 0.902344 0.0625 0.742188 -0.0078125 0.628906 -0.148438 C 0.519531 -0.285156 0.464844 -0.488281 0.464844 -0.753906 L 0.464844 -1.90625 C 0.464844 -1.964844 0.453125 -2.011719 0.429688 -2.050781 C 0.410156 -2.09375 0.375 -2.125 0.332031 -2.15625 C 0.304688 -2.175781 0.265625 -2.191406 0.222656 -2.199219 C 0.179688 -2.207031 0.132812 -2.214844 0.0820312 -2.21875 L 0.0820312 -2.378906 L 0.886719 -2.4375 L 0.921875 -2.402344 L 0.921875 -0.730469 C 0.921875 -0.554688 0.960938 -0.425781 1.039062 -0.335938 C 1.117188 -0.25 1.210938 -0.203125 1.320312 -0.203125 C 1.410156 -0.203125 1.488281 -0.21875 1.558594 -0.246094 C 1.628906 -0.273438 1.6875 -0.308594 1.734375 -0.34375 C 1.78125 -0.378906 1.820312 -0.414062 1.851562 -0.453125 C 1.886719 -0.492188 1.910156 -0.527344 1.929688 -0.558594 L 1.929688 -1.921875 C 1.929688 -1.976562 1.917969 -2.023438 1.894531 -2.0625 C 1.871094 -2.105469 1.839844 -2.140625 1.800781 -2.171875 C 1.769531 -2.191406 1.726562 -2.203125 1.667969 -2.207031 C 1.609375 -2.210938 1.546875 -2.214844 1.476562 -2.21875 L 1.476562 -2.378906 L 2.351562 -2.4375 L 2.386719 -2.402344 L 2.386719 -0.492188 C 2.386719 -0.4375 2.398438 -0.390625 2.421875 -0.351562 C 2.445312 -0.3125 2.476562 -0.277344 2.515625 -0.25 C 2.546875 -0.234375 2.582031 -0.222656 2.621094 -0.214844 C 2.664062 -0.210938 2.707031 -0.207031 2.757812 -0.203125 Z "/>
</g>
<g id="glyph-0-23">
<path d="M 1.765625 -1.179688 C 1.832031 -1.121094 1.882812 -1.054688 1.917969 -0.976562 C 1.953125 -0.898438 1.972656 -0.804688 1.972656 -0.695312 C 1.972656 -0.472656 1.890625 -0.289062 1.722656 -0.148438 C 1.554688 -0.0078125 1.339844 0.0625 1.074219 0.0625 C 0.933594 0.0625 0.804688 0.0390625 0.6875 -0.0117188 C 0.570312 -0.0625 0.484375 -0.109375 0.433594 -0.152344 L 0.386719 0.0078125 L 0.203125 0.0078125 L 0.179688 -0.828125 L 0.347656 -0.828125 C 0.359375 -0.765625 0.386719 -0.691406 0.429688 -0.605469 C 0.472656 -0.523438 0.523438 -0.445312 0.582031 -0.375 C 0.648438 -0.304688 0.722656 -0.246094 0.8125 -0.195312 C 0.902344 -0.148438 1 -0.121094 1.109375 -0.121094 C 1.265625 -0.121094 1.386719 -0.15625 1.472656 -0.230469 C 1.558594 -0.300781 1.597656 -0.402344 1.597656 -0.535156 C 1.597656 -0.601562 1.585938 -0.660156 1.558594 -0.710938 C 1.53125 -0.761719 1.492188 -0.804688 1.441406 -0.84375 C 1.386719 -0.878906 1.320312 -0.914062 1.242188 -0.945312 C 1.164062 -0.972656 1.078125 -1.003906 0.980469 -1.03125 C 0.90625 -1.054688 0.820312 -1.085938 0.726562 -1.125 C 0.632812 -1.167969 0.550781 -1.214844 0.484375 -1.265625 C 0.414062 -1.324219 0.355469 -1.394531 0.308594 -1.476562 C 0.265625 -1.558594 0.242188 -1.65625 0.242188 -1.769531 C 0.242188 -1.96875 0.316406 -2.132812 0.460938 -2.269531 C 0.609375 -2.40625 0.804688 -2.476562 1.050781 -2.476562 C 1.144531 -2.476562 1.242188 -2.464844 1.339844 -2.4375 C 1.4375 -2.414062 1.519531 -2.386719 1.578125 -2.351562 L 1.636719 -2.476562 L 1.8125 -2.476562 L 1.847656 -1.703125 L 1.679688 -1.703125 C 1.644531 -1.878906 1.570312 -2.019531 1.457031 -2.128906 C 1.34375 -2.234375 1.207031 -2.289062 1.046875 -2.289062 C 0.910156 -2.289062 0.804688 -2.257812 0.730469 -2.1875 C 0.652344 -2.121094 0.613281 -2.039062 0.617188 -1.945312 C 0.613281 -1.871094 0.628906 -1.8125 0.652344 -1.761719 C 0.679688 -1.714844 0.714844 -1.671875 0.765625 -1.636719 C 0.816406 -1.605469 0.875 -1.574219 0.949219 -1.546875 C 1.023438 -1.519531 1.117188 -1.484375 1.226562 -1.449219 C 1.332031 -1.414062 1.433594 -1.375 1.53125 -1.332031 C 1.625 -1.285156 1.703125 -1.234375 1.765625 -1.179688 Z "/>
</g>
<g id="glyph-0-24">
<path d="M 1.664062 -0.105469 C 1.558594 -0.0625 1.457031 -0.0234375 1.363281 0.0078125 C 1.269531 0.0351562 1.152344 0.0507812 1.015625 0.0507812 C 0.8125 0.0507812 0.671875 0 0.589844 -0.101562 C 0.507812 -0.203125 0.464844 -0.347656 0.464844 -0.53125 L 0.464844 -2.164062 L 0.03125 -2.164062 L 0.03125 -2.398438 L 0.476562 -2.398438 L 0.476562 -3.148438 L 0.921875 -3.148438 L 0.921875 -2.398438 L 1.609375 -2.398438 L 1.609375 -2.164062 L 0.925781 -2.164062 L 0.925781 -0.816406 C 0.925781 -0.71875 0.929688 -0.632812 0.9375 -0.566406 C 0.945312 -0.496094 0.960938 -0.4375 0.988281 -0.386719 C 1.015625 -0.339844 1.054688 -0.304688 1.105469 -0.28125 C 1.15625 -0.257812 1.226562 -0.242188 1.316406 -0.242188 C 1.355469 -0.242188 1.417969 -0.246094 1.496094 -0.253906 C 1.574219 -0.261719 1.628906 -0.273438 1.664062 -0.28125 Z "/>
</g>
<g id="glyph-0-25">
<path d="M 2.8125 -0.0429688 L 1.96875 0.0078125 L 1.933594 -0.0234375 L 1.933594 -0.25 L 1.914062 -0.253906 C 1.828125 -0.160156 1.726562 -0.0820312 1.601562 -0.0234375 C 1.476562 0.0390625 1.347656 0.0703125 1.21875 0.0703125 C 1.082031 0.0703125 0.949219 0.0390625 0.820312 -0.0234375 C 0.691406 -0.0859375 0.582031 -0.171875 0.488281 -0.28125 C 0.390625 -0.394531 0.316406 -0.527344 0.261719 -0.6875 C 0.203125 -0.84375 0.175781 -1.019531 0.175781 -1.207031 C 0.175781 -1.382812 0.207031 -1.546875 0.265625 -1.703125 C 0.324219 -1.859375 0.410156 -1.996094 0.515625 -2.113281 C 0.613281 -2.222656 0.734375 -2.308594 0.878906 -2.375 C 1.023438 -2.441406 1.167969 -2.472656 1.320312 -2.472656 C 1.429688 -2.472656 1.542969 -2.457031 1.648438 -2.429688 C 1.757812 -2.402344 1.851562 -2.367188 1.929688 -2.320312 L 1.929688 -3.160156 C 1.929688 -3.230469 1.917969 -3.292969 1.894531 -3.347656 C 1.871094 -3.402344 1.839844 -3.445312 1.800781 -3.476562 C 1.753906 -3.507812 1.691406 -3.53125 1.613281 -3.542969 C 1.539062 -3.558594 1.453125 -3.566406 1.363281 -3.574219 L 1.363281 -3.726562 L 2.351562 -3.78125 L 2.386719 -3.742188 L 2.386719 -0.496094 C 2.386719 -0.441406 2.398438 -0.390625 2.421875 -0.351562 C 2.441406 -0.3125 2.476562 -0.277344 2.515625 -0.25 C 2.546875 -0.230469 2.59375 -0.21875 2.652344 -0.214844 C 2.710938 -0.210938 2.765625 -0.207031 2.8125 -0.203125 L 2.8125 -0.0429688 M 1.929688 -0.464844 L 1.929688 -1.875 C 1.914062 -1.917969 1.894531 -1.960938 1.867188 -2.011719 C 1.835938 -2.0625 1.800781 -2.105469 1.753906 -2.144531 C 1.707031 -2.1875 1.652344 -2.21875 1.589844 -2.246094 C 1.527344 -2.273438 1.453125 -2.289062 1.367188 -2.289062 C 1.269531 -2.289062 1.179688 -2.261719 1.097656 -2.210938 C 1.015625 -2.160156 0.945312 -2.089844 0.882812 -1.996094 C 0.820312 -1.902344 0.773438 -1.789062 0.738281 -1.648438 C 0.703125 -1.507812 0.6875 -1.351562 0.6875 -1.179688 C 0.6875 -1.042969 0.699219 -0.917969 0.726562 -0.808594 C 0.75 -0.695312 0.792969 -0.589844 0.855469 -0.496094 C 0.914062 -0.40625 0.984375 -0.332031 1.074219 -0.277344 C 1.164062 -0.21875 1.269531 -0.191406 1.390625 -0.191406 C 1.519531 -0.191406 1.628906 -0.222656 1.714844 -0.277344 C 1.796875 -0.335938 1.871094 -0.398438 1.929688 -0.464844 Z "/>
</g>
<g id="glyph-1-0">
<path d="M 0.820312 -0.976562 C 0.820312 -1.027344 0.8125 -1.074219 0.800781 -1.113281 C 0.800781 -1.230469 0.878906 -1.335938 1.035156 -1.425781 C 1.140625 -1.476562 1.21875 -1.503906 1.269531 -1.503906 C 1.335938 -1.492188 1.378906 -1.453125 1.40625 -1.386719 C 1.484375 -1.203125 1.535156 -1.082031 1.5625 -1.015625 C 1.589844 -0.964844 1.613281 -0.9375 1.640625 -0.9375 C 1.667969 -0.9375 1.691406 -0.957031 1.71875 -0.996094 C 2.160156 -1.777344 2.558594 -2.382812 2.910156 -2.8125 C 3.183594 -3.136719 3.351562 -3.328125 3.417969 -3.378906 C 3.625 -3.535156 3.875 -3.621094 4.160156 -3.632812 L 4.179688 -3.535156 C 3.957031 -3.3125 3.574219 -2.820312 3.027344 -2.050781 C 2.492188 -1.28125 2.109375 -0.675781 1.875 -0.234375 C 1.824219 -0.117188 1.757812 -0.046875 1.679688 -0.0195312 C 1.640625 0.0195312 1.554688 0.03125 1.425781 0.0195312 C 1.335938 0.03125 1.269531 0.0195312 1.230469 -0.0195312 C 1.191406 -0.046875 1.152344 -0.0976562 1.113281 -0.175781 C 0.984375 -0.488281 0.886719 -0.753906 0.820312 -0.976562 Z "/>
</g>
<g id="glyph-2-0">
<path d="M 3.242188 -1.679688 L 0.410156 -1.679688 L 0.410156 -1.914062 L 3.242188 -1.914062 L 2.910156 -2.363281 L 2.910156 -2.421875 L 4.589844 -1.796875 L 2.910156 -1.171875 L 2.910156 -1.230469 Z "/>
</g>
</g>
</defs>
<g fill="rgb(17.647059%, 77.647059%, 32.54902%)" fill-opacity="1">
<use xlink:href="#glyph-0-0" x="30" y="24.584961"/>
<use xlink:href="#glyph-0-1" x="32" y="24.584961"/>
<use xlink:href="#glyph-0-2" x="34" y="24.584961"/>
<use xlink:href="#glyph-0-3" x="36" y="24.584961"/>
<use xlink:href="#glyph-0-4" x="39" y="24.584961"/>
<use xlink:href="#glyph-0-5" x="42" y="24.584961"/>
<use xlink:href="#glyph-0-6" x="44" y="24.584961"/>
<use xlink:href="#glyph-0-7" x="45" y="24.584961"/>
<use xlink:href="#glyph-0-6" x="48" y="24.584961"/>
<use xlink:href="#glyph-0-8" x="49" y="24.584961"/>
<use xlink:href="#glyph-0-9" x="52" y="24.584961"/>
<use xlink:href="#glyph-0-10" x="53" y="24.584961"/>
<use xlink:href="#glyph-0-11" x="56" y="24.584961"/>
<use xlink:href="#glyph-0-8" x="58" y="24.584961"/>
<use xlink:href="#glyph-0-6" x="61" y="24.584961"/>
<use xlink:href="#glyph-0-6" x="62" y="24.584961"/>
</g>
<g fill="rgb(17.647059%, 77.647059%, 32.54902%)" fill-opacity="1">
<use xlink:href="#glyph-1-0" x="63" y="24.584961"/>
</g>
<g fill="rgb(17.647059%, 77.647059%, 32.54902%)" fill-opacity="1">
<use xlink:href="#glyph-0-6" x="68" y="24.584961"/>
<use xlink:href="#glyph-0-6" x="69" y="24.584961"/>
<use xlink:href="#glyph-0-6" x="70" y="24.584961"/>
<use xlink:href="#glyph-0-12" x="71" y="24.584961"/>
<use xlink:href="#glyph-0-13" x="75" y="24.584961"/>
<use xlink:href="#glyph-0-0" x="76" y="24.584961"/>
<use xlink:href="#glyph-0-1" x="78" y="24.584961"/>
<use xlink:href="#glyph-0-6" x="80" y="24.584961"/>
<use xlink:href="#glyph-0-7" x="81" y="24.584961"/>
<use xlink:href="#glyph-0-6" x="84" y="24.584961"/>
<use xlink:href="#glyph-0-0" x="85" y="24.584961"/>
<use xlink:href="#glyph-0-1" x="87" y="24.584961"/>
<use xlink:href="#glyph-0-6" x="89" y="24.584961"/>
<use xlink:href="#glyph-0-6" x="90" y="24.584961"/>
</g>
<g fill="rgb(17.647059%, 77.647059%, 32.54902%)" fill-opacity="1">
<use xlink:href="#glyph-2-0" x="91" y="24.584961"/>
</g>
<g fill="rgb(17.647059%, 77.647059%, 32.54902%)" fill-opacity="1">
<use xlink:href="#glyph-0-6" x="96" y="24.584961"/>
<use xlink:href="#glyph-0-6" x="97" y="24.584961"/>
<use xlink:href="#glyph-0-3" x="98" y="24.584961"/>
<use xlink:href="#glyph-0-14" x="101" y="24.584961"/>
<use xlink:href="#glyph-0-15" x="103" y="24.584961"/>
<use xlink:href="#glyph-0-15" x="105" y="24.584961"/>
<use xlink:href="#glyph-0-16" x="107" y="24.584961"/>
<use xlink:href="#glyph-0-17" x="110" y="24.584961"/>
<use xlink:href="#glyph-0-18" x="113" y="24.584961"/>
<use xlink:href="#glyph-0-19" x="115" y="24.584961"/>
<use xlink:href="#glyph-0-15" x="118" y="24.584961"/>
<use xlink:href="#glyph-0-16" x="120" y="24.584961"/>
<use xlink:href="#glyph-0-20" x="123" y="24.584961"/>
<use xlink:href="#glyph-0-14" x="126" y="24.584961"/>
<use xlink:href="#glyph-0-17" x="128" y="24.584961"/>
<use xlink:href="#glyph-0-21" x="131" y="24.584961"/>
<use xlink:href="#glyph-0-22" x="132" y="24.584961"/>
<use xlink:href="#glyph-0-23" x="135" y="24.584961"/>
<use xlink:href="#glyph-0-6" x="137" y="24.584961"/>
<use xlink:href="#glyph-0-15" x="138" y="24.584961"/>
<use xlink:href="#glyph-0-14" x="140" y="24.584961"/>
<use xlink:href="#glyph-0-23" x="142" y="24.584961"/>
<use xlink:href="#glyph-0-24" x="144" y="24.584961"/>
<use xlink:href="#glyph-0-16" x="146" y="24.584961"/>
<use xlink:href="#glyph-0-15" x="149" y="24.584961"/>
<use xlink:href="#glyph-0-14" x="151" y="24.584961"/>
<use xlink:href="#glyph-0-25" x="153" y="24.584961"/>
<use xlink:href="#glyph-0-9" x="156" y="24.584961"/>
</g>
</svg>
