<?xml version="1.0" encoding="UTF-8"?>
<svg xmlns="http://www.w3.org/2000/svg" xmlns:xlink="http://www.w3.org/1999/xlink" width="1920" height="1080" viewBox="0 0 1920 1080">
<defs>
<g>
<g id="glyph-0-0">
<path d="M 2.25 -2.03125 C 2.25 -1.890625 2.222656 -1.765625 2.164062 -1.65625 C 2.109375 -1.546875 2.035156 -1.460938 1.9375 -1.386719 C 1.839844 -1.316406 1.734375 -1.265625 1.621094 -1.234375 C 1.503906 -1.199219 1.382812 -1.183594 1.253906 -1.183594 L 0.953125 -1.183594 L 0.953125 -0.367188 C 0.953125 -0.320312 0.957031 -0.285156 0.972656 -0.25 C 0.988281 -0.214844 1.019531 -0.191406 1.0625 -0.171875 C 1.085938 -0.164062 1.125 -0.15625 1.183594 -0.148438 C 1.242188 -0.140625 1.292969 -0.136719 1.34375 -0.136719 L 1.34375 0 L 0.1875 0 L 0.1875 -0.136719 C 0.214844 -0.136719 0.261719 -0.140625 0.316406 -0.148438 C 0.375 -0.15625 0.414062 -0.164062 0.4375 -0.171875 C 0.476562 -0.1875 0.503906 -0.214844 0.519531 -0.246094 C 0.539062 -0.277344 0.546875 -0.316406 0.546875 -0.367188 L 0.546875 -2.3125 C 0.546875 -2.355469 0.539062 -2.394531 0.527344 -2.429688 C 0.515625 -2.464844 0.484375 -2.492188 0.4375 -2.511719 C 0.390625 -2.527344 0.34375 -2.539062 0.296875 -2.546875 C 0.246094 -2.550781 0.207031 -2.558594 0.171875 -2.558594 L 0.171875 -2.695312 L 1.402344 -2.695312 C 1.652344 -2.695312 1.859375 -2.632812 2.015625 -2.511719 C 2.171875 -2.390625 2.25 -2.230469 2.25 -2.03125 M 1.671875 -1.570312 C 1.714844 -1.632812 1.742188 -1.695312 1.757812 -1.757812 C 1.769531 -1.824219 1.777344 -1.882812 1.777344 -1.933594 C 1.777344 -2.007812 1.769531 -2.082031 1.75 -2.15625 C 1.734375 -2.230469 1.707031 -2.296875 1.664062 -2.351562 C 1.621094 -2.410156 1.5625 -2.457031 1.488281 -2.488281 C 1.417969 -2.523438 1.328125 -2.539062 1.21875 -2.539062 L 0.953125 -2.539062 L 0.953125 -1.347656 L 1.144531 -1.347656 C 1.28125 -1.347656 1.394531 -1.371094 1.476562 -1.410156 C 1.5625 -1.453125 1.628906 -1.507812 1.671875 -1.570312 Z "/>
</g>
<g id="glyph-0-1">
<path d="M 1.535156 0 L 0.257812 0 L 0.257812 -0.136719 C 0.292969 -0.136719 0.355469 -0.144531 0.433594 -0.152344 C 0.515625 -0.160156 0.570312 -0.167969 0.601562 -0.175781 C 0.640625 -0.1875 0.667969 -0.210938 0.691406 -0.238281 C 0.710938 -0.265625 0.722656 -0.308594 0.722656 -0.367188 L 0.722656 -1.699219 L 0.25 -1.699219 L 0.25 -1.859375 L 0.351562 -1.859375 C 0.488281 -1.859375 0.613281 -1.882812 0.71875 -1.933594 C 0.828125 -1.984375 0.90625 -2.039062 0.953125 -2.097656 L 1.109375 -2.097656 C 1.105469 -2.015625 1.101562 -1.921875 1.097656 -1.808594 C 1.097656 -1.699219 1.09375 -1.601562 1.09375 -1.511719 L 1.09375 -0.386719 C 1.09375 -0.34375 1.105469 -0.304688 1.125 -0.269531 C 1.144531 -0.234375 1.171875 -0.207031 1.207031 -0.191406 C 1.242188 -0.179688 1.292969 -0.164062 1.371094 -0.152344 C 1.445312 -0.140625 1.5 -0.136719 1.535156 -0.136719 Z "/>
</g>
</g>
</defs>
<g fill="rgb(78.431373%, 78.431373%, 78.431373%)" fill-opacity="1">
<use xlink:href="#glyph-0-0" x="30" y="23.56543"/>
<use xlink:href="#glyph-0-1" x="32" y="23.56543"/>
</g>
</svg>
