<?xml version="1.0" encoding="UTF-8"?>
<svg xmlns="http://www.w3.org/2000/svg" xmlns:xlink="http://www.w3.org/1999/xlink" width="1920" height="1080" viewBox="0 0 1920 1080">
<defs>
<g>
<g id="glyph-0-0">
<path d="M 5.785156 -2.226562 C 5.722656 -2.21875 5.640625 -2.207031 5.53125 -2.1875 C 5.425781 -2.171875 5.339844 -2.148438 5.273438 -2.117188 C 5.195312 -2.078125 5.140625 -2.019531 5.109375 -1.949219 C 5.074219 -1.878906 5.058594 -1.792969 5.058594 -1.695312 L 5.058594 -1.261719 C 5.058594 -0.949219 5.0625 -0.734375 5.066406 -0.625 C 5.070312 -0.515625 5.074219 -0.425781 5.078125 -0.355469 C 4.730469 -0.195312 4.382812 -0.0742188 4.035156 0.0078125 C 3.691406 0.0898438 3.351562 0.132812 3.015625 0.132812 C 2.660156 0.132812 2.316406 0.0664062 1.988281 -0.0664062 C 1.65625 -0.199219 1.367188 -0.390625 1.121094 -0.636719 C 0.871094 -0.886719 0.675781 -1.191406 0.527344 -1.546875 C 0.378906 -1.902344 0.308594 -2.304688 0.308594 -2.742188 C 0.308594 -3.167969 0.378906 -3.5625 0.515625 -3.925781 C 0.65625 -4.289062 0.855469 -4.605469 1.113281 -4.875 C 1.363281 -5.136719 1.660156 -5.339844 2.003906 -5.484375 C 2.347656 -5.632812 2.71875 -5.703125 3.113281 -5.703125 C 3.425781 -5.703125 3.699219 -5.664062 3.933594 -5.589844 C 4.167969 -5.511719 4.371094 -5.421875 4.550781 -5.3125 L 4.710938 -5.582031 L 5.027344 -5.582031 L 5.0625 -3.628906 L 4.738281 -3.628906 C 4.683594 -3.847656 4.617188 -4.058594 4.535156 -4.265625 C 4.453125 -4.472656 4.347656 -4.660156 4.21875 -4.828125 C 4.089844 -4.992188 3.933594 -5.125 3.75 -5.222656 C 3.566406 -5.320312 3.34375 -5.371094 3.085938 -5.371094 C 2.804688 -5.371094 2.554688 -5.3125 2.332031 -5.199219 C 2.113281 -5.082031 1.921875 -4.914062 1.757812 -4.6875 C 1.597656 -4.46875 1.476562 -4.199219 1.390625 -3.875 C 1.300781 -3.546875 1.257812 -3.183594 1.257812 -2.78125 C 1.257812 -2.429688 1.300781 -2.09375 1.386719 -1.78125 C 1.472656 -1.46875 1.597656 -1.195312 1.757812 -0.96875 C 1.921875 -0.734375 2.125 -0.550781 2.371094 -0.417969 C 2.613281 -0.285156 2.890625 -0.214844 3.199219 -0.214844 C 3.429688 -0.214844 3.640625 -0.25 3.832031 -0.324219 C 4.023438 -0.394531 4.15625 -0.46875 4.238281 -0.546875 C 4.257812 -0.683594 4.269531 -0.820312 4.269531 -0.960938 C 4.269531 -1.097656 4.273438 -1.214844 4.273438 -1.3125 L 4.273438 -1.621094 C 4.273438 -1.730469 4.257812 -1.828125 4.226562 -1.914062 C 4.195312 -2 4.132812 -2.0625 4.039062 -2.101562 C 3.953125 -2.140625 3.835938 -2.167969 3.6875 -2.1875 C 3.539062 -2.207031 3.421875 -2.222656 3.339844 -2.226562 L 3.339844 -2.511719 L 5.785156 -2.511719 Z "/>
</g>
<g id="glyph-0-1">
</g>
<g id="glyph-0-2">
<path d="M 4.574219 -2.6875 L 0.605469 -2.6875 L 0.605469 -3.179688 L 4.574219 -3.179688 L 4.574219 -2.6875 M 4.574219 -1.222656 L 0.605469 -1.222656 L 0.605469 -1.714844 L 4.574219 -1.714844 Z "/>
</g>
<g id="glyph-0-3">
<path d="M 2.757812 1.289062 C 2.042969 1.199219 1.480469 0.839844 1.070312 0.207031 C 0.664062 -0.421875 0.460938 -1.273438 0.460938 -2.34375 C 0.460938 -3.433594 0.664062 -4.292969 1.070312 -4.929688 C 1.480469 -5.566406 2.042969 -5.933594 2.757812 -6.027344 L 2.757812 -5.699219 C 2.253906 -5.609375 1.871094 -5.285156 1.609375 -4.734375 C 1.347656 -4.183594 1.214844 -3.386719 1.214844 -2.335938 C 1.214844 -1.335938 1.34375 -0.558594 1.601562 -0.0078125 C 1.859375 0.546875 2.242188 0.875 2.757812 0.96875 Z "/>
</g>
<g id="glyph-0-4">
<path d="M 3.183594 0 L 0.53125 0 L 0.53125 -0.277344 C 0.609375 -0.285156 0.730469 -0.296875 0.898438 -0.3125 C 1.066406 -0.328125 1.179688 -0.347656 1.242188 -0.367188 C 1.324219 -0.390625 1.386719 -0.433594 1.429688 -0.492188 C 1.472656 -0.550781 1.496094 -0.640625 1.496094 -0.757812 L 1.496094 -3.519531 L 0.515625 -3.519531 L 0.515625 -3.851562 L 0.730469 -3.851562 C 1.015625 -3.851562 1.269531 -3.902344 1.492188 -4.007812 C 1.71875 -4.113281 1.878906 -4.226562 1.976562 -4.347656 L 2.300781 -4.347656 C 2.292969 -4.175781 2.285156 -3.976562 2.277344 -3.75 C 2.269531 -3.519531 2.265625 -3.316406 2.265625 -3.136719 L 2.265625 -0.800781 C 2.265625 -0.710938 2.285156 -0.628906 2.328125 -0.554688 C 2.367188 -0.484375 2.425781 -0.429688 2.5 -0.398438 C 2.570312 -0.367188 2.679688 -0.34375 2.835938 -0.320312 C 2.992188 -0.296875 3.105469 -0.28125 3.183594 -0.277344 Z "/>
</g>
<g id="glyph-0-5">
<path d="M 4.59375 -1.953125 L 0.585938 -1.953125 L 0.585938 -2.445312 L 4.59375 -2.445312 Z "/>
</g>
<g id="glyph-0-6">
<path d="M 3.828125 -3.417969 C 3.980469 -3.234375 4.101562 -3.023438 4.1875 -2.777344 C 4.273438 -2.535156 4.316406 -2.257812 4.316406 -1.945312 C 4.316406 -1.640625 4.265625 -1.359375 4.160156 -1.105469 C 4.058594 -0.855469 3.925781 -0.636719 3.757812 -0.460938 C 3.582031 -0.277344 3.386719 -0.140625 3.171875 -0.0429688 C 2.957031 0.0546875 2.726562 0.101562 2.484375 0.101562 C 2.253906 0.101562 2.0625 0.0742188 1.910156 0.0234375 C 1.761719 -0.0273438 1.640625 -0.0898438 1.546875 -0.160156 L 1.515625 -0.160156 L 1.515625 1.003906 C 1.515625 1.101562 1.53125 1.179688 1.570312 1.242188 C 1.605469 1.304688 1.664062 1.351562 1.738281 1.378906 C 1.800781 1.402344 1.890625 1.425781 2.007812 1.449219 C 2.125 1.472656 2.222656 1.484375 2.296875 1.488281 L 2.296875 1.746094 L 0.128906 1.746094 L 0.128906 1.488281 C 0.210938 1.480469 0.289062 1.476562 0.367188 1.46875 C 0.441406 1.460938 0.511719 1.445312 0.570312 1.429688 C 0.648438 1.402344 0.703125 1.355469 0.734375 1.289062 C 0.765625 1.226562 0.78125 1.148438 0.78125 1.058594 L 0.78125 -3.066406 C 0.78125 -3.148438 0.761719 -3.222656 0.722656 -3.296875 C 0.683594 -3.371094 0.632812 -3.429688 0.570312 -3.472656 C 0.523438 -3.503906 0.457031 -3.527344 0.375 -3.546875 C 0.289062 -3.5625 0.207031 -3.574219 0.128906 -3.578125 L 0.128906 -3.839844 L 1.453125 -3.925781 L 1.507812 -3.878906 L 1.507812 -3.441406 L 1.539062 -3.433594 C 1.675781 -3.589844 1.84375 -3.722656 2.046875 -3.828125 C 2.246094 -3.933594 2.449219 -3.984375 2.648438 -3.984375 C 2.886719 -3.984375 3.109375 -3.933594 3.308594 -3.832031 C 3.511719 -3.730469 3.683594 -3.589844 3.828125 -3.417969 M 3.1875 -0.628906 C 3.292969 -0.792969 3.367188 -0.980469 3.417969 -1.195312 C 3.46875 -1.410156 3.492188 -1.652344 3.492188 -1.914062 C 3.492188 -2.109375 3.472656 -2.308594 3.429688 -2.507812 C 3.386719 -2.710938 3.324219 -2.886719 3.234375 -3.035156 C 3.144531 -3.1875 3.027344 -3.3125 2.882812 -3.40625 C 2.738281 -3.5 2.566406 -3.546875 2.363281 -3.546875 C 2.171875 -3.546875 2.003906 -3.503906 1.867188 -3.421875 C 1.730469 -3.335938 1.613281 -3.234375 1.515625 -3.117188 L 1.515625 -0.820312 C 1.539062 -0.75 1.578125 -0.679688 1.628906 -0.601562 C 1.683594 -0.527344 1.742188 -0.460938 1.808594 -0.40625 C 1.890625 -0.339844 1.980469 -0.285156 2.074219 -0.246094 C 2.167969 -0.207031 2.28125 -0.183594 2.417969 -0.183594 C 2.566406 -0.183594 2.707031 -0.222656 2.84375 -0.300781 C 2.980469 -0.378906 3.09375 -0.488281 3.1875 -0.628906 Z "/>
</g>
<g id="glyph-0-7">
<path d="M 2.5625 -2.34375 C 2.5625 -1.273438 2.355469 -0.421875 1.949219 0.207031 C 1.542969 0.839844 0.980469 1.199219 0.261719 1.289062 L 0.261719 0.96875 C 0.777344 0.875 1.164062 0.546875 1.421875 -0.0078125 C 1.675781 -0.558594 1.804688 -1.335938 1.804688 -2.335938 C 1.804688 -3.386719 1.675781 -4.183594 1.414062 -4.734375 C 1.148438 -5.285156 0.765625 -5.609375 0.261719 -5.699219 L 0.261719 -6.027344 C 0.980469 -5.933594 1.542969 -5.566406 1.949219 -4.929688 C 2.355469 -4.292969 2.5625 -3.433594 2.5625 -2.34375 Z "/>
</g>
<g id="glyph-0-8">
<path d="M 1.671875 -2.199219 C 1.671875 -2.050781 1.617188 -1.925781 1.511719 -1.824219 C 1.40625 -1.71875 1.28125 -1.667969 1.132812 -1.667969 C 0.984375 -1.667969 0.859375 -1.71875 0.753906 -1.824219 C 0.648438 -1.925781 0.59375 -2.050781 0.59375 -2.199219 C 0.59375 -2.347656 0.648438 -2.472656 0.753906 -2.578125 C 0.859375 -2.683594 0.984375 -2.738281 1.132812 -2.738281 C 1.28125 -2.738281 1.40625 -2.683594 1.511719 -2.578125 C 1.617188 -2.472656 1.671875 -2.347656 1.671875 -2.199219 Z "/>
</g>
<g id="glyph-0-9">
<path d="M 7.105469 0 L 4.636719 0 L 4.636719 -0.277344 C 4.726562 -0.28125 4.839844 -0.292969 4.980469 -0.308594 C 5.121094 -0.324219 5.21875 -0.34375 5.269531 -0.375 C 5.351562 -0.421875 5.410156 -0.480469 5.449219 -0.542969 C 5.488281 -0.609375 5.507812 -0.691406 5.507812 -0.785156 L 5.507812 -4.847656 L 5.449219 -4.847656 L 3.542969 -0.0898438 L 3.347656 -0.0898438 L 1.535156 -4.945312 L 1.484375 -4.945312 L 1.484375 -1.613281 C 1.484375 -1.289062 1.503906 -1.046875 1.542969 -0.878906 C 1.585938 -0.710938 1.648438 -0.589844 1.730469 -0.515625 C 1.789062 -0.460938 1.90625 -0.40625 2.089844 -0.359375 C 2.269531 -0.308594 2.386719 -0.28125 2.441406 -0.277344 L 2.441406 0 L 0.1875 0 L 0.1875 -0.277344 C 0.308594 -0.289062 0.429688 -0.308594 0.558594 -0.339844 C 0.691406 -0.367188 0.789062 -0.410156 0.863281 -0.46875 C 0.953125 -0.542969 1.015625 -0.652344 1.050781 -0.804688 C 1.085938 -0.957031 1.101562 -1.210938 1.101562 -1.570312 L 1.101562 -4.425781 C 1.101562 -4.589844 1.082031 -4.726562 1.042969 -4.832031 C 1.003906 -4.933594 0.945312 -5.019531 0.875 -5.085938 C 0.792969 -5.15625 0.691406 -5.210938 0.574219 -5.242188 C 0.457031 -5.277344 0.339844 -5.296875 0.222656 -5.300781 L 0.222656 -5.582031 L 2.128906 -5.582031 L 3.726562 -1.390625 L 5.089844 -4.898438 C 5.140625 -5.027344 5.183594 -5.160156 5.21875 -5.300781 C 5.253906 -5.441406 5.273438 -5.535156 5.277344 -5.582031 L 7.097656 -5.582031 L 7.097656 -5.300781 C 7.023438 -5.300781 6.929688 -5.289062 6.816406 -5.265625 C 6.699219 -5.246094 6.617188 -5.226562 6.566406 -5.207031 C 6.476562 -5.175781 6.414062 -5.125 6.382812 -5.050781 C 6.351562 -4.976562 6.335938 -4.898438 6.335938 -4.8125 L 6.335938 -0.785156 C 6.335938 -0.695312 6.351562 -0.617188 6.382812 -0.554688 C 6.414062 -0.492188 6.476562 -0.4375 6.566406 -0.390625 C 6.613281 -0.363281 6.695312 -0.339844 6.816406 -0.316406 C 6.9375 -0.292969 7.035156 -0.28125 7.105469 -0.277344 Z "/>
</g>
<g id="glyph-0-10">
<path d="M 4.613281 -1.953125 L 2.839844 -1.953125 L 2.839844 -0.179688 L 2.339844 -0.179688 L 2.339844 -1.953125 L 0.566406 -1.953125 L 0.566406 -2.445312 L 2.339844 -2.445312 L 2.339844 -4.222656 L 2.839844 -4.222656 L 2.839844 -2.445312 L 4.613281 -2.445312 Z "/>
</g>
<g id="glyph-0-11">
<path d="M 3.421875 -5.992188 L 0.707031 1.667969 L 0.191406 1.667969 L 2.898438 -5.992188 Z "/>
</g>
<g id="glyph-0-12">
<path d="M 4.566406 0 L 2.671875 0 L 2.671875 -0.257812 C 2.730469 -0.265625 2.796875 -0.269531 2.871094 -0.273438 C 2.941406 -0.28125 3 -0.292969 3.046875 -0.308594 C 3.121094 -0.332031 3.175781 -0.371094 3.210938 -0.429688 C 3.246094 -0.488281 3.265625 -0.566406 3.265625 -0.660156 L 3.265625 -2.65625 C 3.265625 -2.929688 3.199219 -3.144531 3.070312 -3.292969 C 2.941406 -3.441406 2.78125 -3.515625 2.59375 -3.515625 C 2.457031 -3.515625 2.328125 -3.496094 2.210938 -3.453125 C 2.097656 -3.410156 1.992188 -3.355469 1.90625 -3.292969 C 1.816406 -3.230469 1.75 -3.167969 1.699219 -3.097656 C 1.644531 -3.027344 1.609375 -2.972656 1.585938 -2.929688 L 1.585938 -0.699219 C 1.585938 -0.609375 1.605469 -0.539062 1.640625 -0.480469 C 1.675781 -0.421875 1.730469 -0.378906 1.804688 -0.347656 C 1.859375 -0.320312 1.921875 -0.300781 1.984375 -0.289062 C 2.046875 -0.273438 2.113281 -0.265625 2.183594 -0.257812 L 2.183594 0 L 0.285156 0 L 0.285156 -0.257812 C 0.34375 -0.265625 0.40625 -0.269531 0.46875 -0.273438 C 0.535156 -0.28125 0.589844 -0.292969 0.636719 -0.308594 C 0.710938 -0.332031 0.765625 -0.371094 0.800781 -0.429688 C 0.835938 -0.488281 0.855469 -0.566406 0.855469 -0.660156 L 0.855469 -3.054688 C 0.855469 -3.140625 0.835938 -3.222656 0.796875 -3.296875 C 0.757812 -3.375 0.707031 -3.433594 0.636719 -3.480469 C 0.585938 -3.511719 0.527344 -3.535156 0.460938 -3.550781 C 0.390625 -3.566406 0.320312 -3.574219 0.238281 -3.578125 L 0.238281 -3.839844 L 1.53125 -3.925781 L 1.585938 -3.871094 L 1.585938 -3.324219 L 1.605469 -3.324219 C 1.667969 -3.386719 1.746094 -3.460938 1.839844 -3.550781 C 1.933594 -3.636719 2.023438 -3.710938 2.109375 -3.765625 C 2.207031 -3.828125 2.320312 -3.878906 2.453125 -3.921875 C 2.589844 -3.964844 2.738281 -3.984375 2.90625 -3.984375 C 3.28125 -3.984375 3.554688 -3.867188 3.734375 -3.636719 C 3.914062 -3.40625 4.003906 -3.097656 4.003906 -2.710938 L 4.003906 -0.691406 C 4.003906 -0.601562 4.019531 -0.527344 4.050781 -0.46875 C 4.082031 -0.414062 4.136719 -0.371094 4.210938 -0.339844 C 4.277344 -0.3125 4.332031 -0.292969 4.375 -0.285156 C 4.421875 -0.273438 4.484375 -0.265625 4.566406 -0.257812 Z "/>
</g>
<g id="glyph-0-13">
<path d="M 5.078125 -1.644531 L 4.972656 0 L 0.339844 0 L 0.339844 -0.277344 C 0.417969 -0.285156 0.523438 -0.296875 0.652344 -0.3125 C 0.785156 -0.328125 0.871094 -0.347656 0.910156 -0.367188 C 0.992188 -0.40625 1.050781 -0.457031 1.082031 -0.519531 C 1.117188 -0.582031 1.132812 -0.664062 1.132812 -0.757812 L 1.132812 -4.769531 C 1.132812 -4.859375 1.117188 -4.933594 1.089844 -5 C 1.0625 -5.070312 1 -5.121094 0.910156 -5.164062 C 0.835938 -5.199219 0.742188 -5.230469 0.625 -5.253906 C 0.503906 -5.28125 0.410156 -5.296875 0.339844 -5.300781 L 0.339844 -5.582031 L 4.65625 -5.582031 L 4.65625 -4.238281 L 4.363281 -4.238281 C 4.308594 -4.4375 4.195312 -4.648438 4.023438 -4.871094 C 3.847656 -5.097656 3.683594 -5.21875 3.523438 -5.238281 C 3.441406 -5.25 3.347656 -5.257812 3.234375 -5.261719 C 3.121094 -5.269531 2.992188 -5.269531 2.847656 -5.269531 L 1.972656 -5.269531 L 1.972656 -3.050781 L 2.601562 -3.050781 C 2.800781 -3.050781 2.949219 -3.070312 3.042969 -3.109375 C 3.136719 -3.148438 3.21875 -3.210938 3.289062 -3.300781 C 3.347656 -3.375 3.394531 -3.476562 3.4375 -3.605469 C 3.476562 -3.730469 3.503906 -3.851562 3.515625 -3.964844 L 3.8125 -3.964844 L 3.8125 -1.777344 L 3.515625 -1.777344 C 3.507812 -1.902344 3.476562 -2.035156 3.433594 -2.175781 C 3.386719 -2.316406 3.339844 -2.417969 3.289062 -2.480469 C 3.207031 -2.585938 3.113281 -2.652344 3.011719 -2.683594 C 2.90625 -2.714844 2.769531 -2.730469 2.601562 -2.730469 L 1.972656 -2.730469 L 1.972656 -1.058594 C 1.972656 -0.890625 1.984375 -0.757812 2.007812 -0.660156 C 2.03125 -0.5625 2.074219 -0.488281 2.144531 -0.441406 C 2.210938 -0.390625 2.304688 -0.359375 2.421875 -0.34375 C 2.542969 -0.328125 2.707031 -0.324219 2.925781 -0.324219 C 3.011719 -0.324219 3.128906 -0.324219 3.269531 -0.324219 C 3.410156 -0.324219 3.53125 -0.328125 3.625 -0.339844 C 3.726562 -0.347656 3.828125 -0.367188 3.9375 -0.394531 C 4.042969 -0.421875 4.117188 -0.460938 4.160156 -0.507812 C 4.28125 -0.632812 4.410156 -0.824219 4.542969 -1.078125 C 4.671875 -1.335938 4.757812 -1.523438 4.796875 -1.644531 Z "/>
</g>
<g id="glyph-0-14">
<path d="M 4.039062 -3.675781 C 4.207031 -3.472656 4.332031 -3.234375 4.414062 -2.964844 C 4.5 -2.691406 4.539062 -2.410156 4.539062 -2.113281 C 4.539062 -1.753906 4.488281 -1.4375 4.386719 -1.15625 C 4.285156 -0.871094 4.144531 -0.636719 3.964844 -0.453125 C 3.78125 -0.261719 3.5625 -0.117188 3.3125 -0.0195312 C 3.058594 0.078125 2.78125 0.125 2.46875 0.125 C 2.132812 0.125 1.832031 0.0703125 1.566406 -0.0429688 C 1.300781 -0.15625 1.085938 -0.3125 0.921875 -0.507812 C 0.746094 -0.710938 0.617188 -0.953125 0.53125 -1.226562 C 0.449219 -1.5 0.40625 -1.796875 0.40625 -2.113281 C 0.40625 -2.425781 0.445312 -2.710938 0.527344 -2.972656 C 0.613281 -3.234375 0.742188 -3.472656 0.917969 -3.6875 C 1.085938 -3.890625 1.300781 -4.050781 1.566406 -4.167969 C 1.832031 -4.289062 2.132812 -4.347656 2.472656 -4.347656 C 2.832031 -4.347656 3.140625 -4.285156 3.398438 -4.164062 C 3.65625 -4.046875 3.871094 -3.882812 4.039062 -3.675781 M 3.671875 -2.113281 C 3.671875 -2.738281 3.5625 -3.21875 3.347656 -3.5625 C 3.136719 -3.90625 2.84375 -4.078125 2.476562 -4.078125 C 2.105469 -4.078125 1.8125 -3.90625 1.597656 -3.5625 C 1.382812 -3.21875 1.273438 -2.738281 1.273438 -2.113281 C 1.273438 -1.519531 1.378906 -1.042969 1.582031 -0.683594 C 1.789062 -0.320312 2.085938 -0.140625 2.46875 -0.140625 C 2.855469 -0.140625 3.152344 -0.320312 3.359375 -0.683594 C 3.566406 -1.042969 3.671875 -1.519531 3.671875 -2.113281 Z "/>
</g>
<g id="glyph-0-15">
<path d="M 1.632812 -0.453125 C 1.632812 -0.304688 1.578125 -0.179688 1.472656 -0.078125 C 1.367188 0.0273438 1.242188 0.078125 1.09375 0.078125 C 0.945312 0.078125 0.820312 0.0273438 0.714844 -0.078125 C 0.609375 -0.179688 0.554688 -0.304688 0.554688 -0.453125 C 0.554688 -0.597656 0.609375 -0.726562 0.714844 -0.832031 C 0.820312 -0.9375 0.945312 -0.992188 1.09375 -0.992188 C 1.242188 -0.992188 1.367188 -0.9375 1.472656 -0.832031 C 1.578125 -0.726562 1.632812 -0.597656 1.632812 -0.453125 Z "/>
</g>
<g id="glyph-0-16">
<path d="M 3.316406 -1.84375 C 3.488281 -1.707031 3.632812 -1.53125 3.746094 -1.316406 C 3.859375 -1.101562 3.917969 -0.832031 3.917969 -0.511719 C 3.917969 0.0507812 3.726562 0.519531 3.339844 0.886719 C 2.953125 1.253906 2.464844 1.4375 1.871094 1.4375 C 1.414062 1.4375 1.023438 1.328125 0.707031 1.109375 C 0.390625 0.890625 0.230469 0.636719 0.230469 0.351562 C 0.230469 0.214844 0.265625 0.101562 0.332031 0 C 0.394531 -0.101562 0.496094 -0.148438 0.632812 -0.148438 C 0.789062 -0.148438 0.910156 -0.109375 0.992188 -0.0273438 C 1.074219 0.0585938 1.117188 0.148438 1.117188 0.242188 C 1.117188 0.328125 1.101562 0.433594 1.074219 0.558594 C 1.046875 0.683594 1.023438 0.777344 1.007812 0.835938 C 1.027344 0.855469 1.0625 0.882812 1.109375 0.914062 C 1.15625 0.945312 1.210938 0.972656 1.277344 1.003906 C 1.347656 1.03125 1.429688 1.058594 1.527344 1.078125 C 1.625 1.101562 1.742188 1.113281 1.871094 1.113281 C 2.039062 1.113281 2.199219 1.078125 2.347656 1.011719 C 2.496094 0.941406 2.625 0.839844 2.726562 0.707031 C 2.839844 0.5625 2.921875 0.394531 2.980469 0.207031 C 3.035156 0.0195312 3.0625 -0.21875 3.0625 -0.507812 C 3.0625 -0.878906 2.960938 -1.183594 2.753906 -1.425781 C 2.550781 -1.667969 2.277344 -1.789062 1.941406 -1.789062 C 1.734375 -1.789062 1.539062 -1.75 1.355469 -1.671875 C 1.171875 -1.59375 1.007812 -1.460938 0.867188 -1.277344 L 0.601562 -1.378906 L 0.9375 -4.222656 L 3.753906 -4.222656 L 3.753906 -3.519531 L 1.253906 -3.519531 L 1.050781 -1.851562 C 1.167969 -1.9375 1.324219 -2.019531 1.515625 -2.101562 C 1.707031 -2.183594 1.921875 -2.226562 2.152344 -2.226562 C 2.34375 -2.226562 2.542969 -2.195312 2.746094 -2.136719 C 2.953125 -2.078125 3.144531 -1.980469 3.316406 -1.84375 Z "/>
</g>
</g>
</defs>
<g fill="rgb(100%, 100%, 100%)" fill-opacity="1">
<use xlink:href="#glyph-0-0" x="30" y="27.386719"/>
<use xlink:href="#glyph-0-1" x="36" y="27.386719"/>
<use xlink:href="#glyph-0-1" x="38" y="27.386719"/>
<use xlink:href="#glyph-0-2" x="40" y="27.386719"/>
<use xlink:href="#glyph-0-1" x="45" y="27.386719"/>
<use xlink:href="#glyph-0-1" x="47" y="27.386719"/>
<use xlink:href="#glyph-0-3" x="49" y="27.386719"/>
<use xlink:href="#glyph-0-4" x="52" y="27.386719"/>
<use xlink:href="#glyph-0-1" x="55" y="27.386719"/>
<use xlink:href="#glyph-0-5" x="57" y="27.386719"/>
<use xlink:href="#glyph-0-1" x="62" y="27.386719"/>
<use xlink:href="#glyph-0-6" x="64" y="27.386719"/>
<use xlink:href="#glyph-0-7" x="69" y="27.386719"/>
<use xlink:href="#glyph-0-1" x="72" y="27.386719"/>
<use xlink:href="#glyph-0-8" x="74" y="27.386719"/>
<use xlink:href="#glyph-0-1" x="76" y="27.386719"/>
<use xlink:href="#glyph-0-9" x="78" y="27.386719"/>
<use xlink:href="#glyph-0-1" x="85" y="27.386719"/>
<use xlink:href="#glyph-0-1" x="87" y="27.386719"/>
<use xlink:href="#glyph-0-10" x="89" y="27.386719"/>
<use xlink:href="#glyph-0-1" x="94" y="27.386719"/>
<use xlink:href="#glyph-0-1" x="96" y="27.386719"/>
<use xlink:href="#glyph-0-6" x="98" y="27.386719"/>
<use xlink:href="#glyph-0-1" x="103" y="27.386719"/>
<use xlink:href="#glyph-0-8" x="105" y="27.386719"/>
<use xlink:href="#glyph-0-1" x="107" y="27.386719"/>
<use xlink:href="#glyph-0-3" x="109" y="27.386719"/>
<use xlink:href="#glyph-0-4" x="112" y="27.386719"/>
<use xlink:href="#glyph-0-11" x="115" y="27.386719"/>
<use xlink:href="#glyph-0-12" x="119" y="27.386719"/>
<use xlink:href="#glyph-0-7" x="124" y="27.386719"/>
<use xlink:href="#glyph-0-1" x="127" y="27.386719"/>
<use xlink:href="#glyph-0-8" x="129" y="27.386719"/>
<use xlink:href="#glyph-0-1" x="131" y="27.386719"/>
<use xlink:href="#glyph-0-13" x="133" y="27.386719"/>
<use xlink:href="#glyph-0-1" x="138" y="27.386719"/>
<use xlink:href="#glyph-0-1" x="140" y="27.386719"/>
<use xlink:href="#glyph-0-1" x="142" y="27.386719"/>
<use xlink:href="#glyph-0-1" x="144" y="27.386719"/>
<use xlink:href="#glyph-0-1" x="146" y="27.386719"/>
<use xlink:href="#glyph-0-1" x="148" y="27.386719"/>
<use xlink:href="#glyph-0-1" x="150" y="27.386719"/>
<use xlink:href="#glyph-0-6" x="152" y="27.386719"/>
<use xlink:href="#glyph-0-1" x="157" y="27.386719"/>
<use xlink:href="#glyph-0-2" x="159" y="27.386719"/>
<use xlink:href="#glyph-0-1" x="164" y="27.386719"/>
<use xlink:href="#glyph-0-14" x="166" y="27.386719"/>
<use xlink:href="#glyph-0-15" x="171" y="27.386719"/>
<use xlink:href="#glyph-0-4" x="173" y="27.386719"/>
<use xlink:href="#glyph-0-16" x="176" y="27.386719"/>
</g>
</svg>
